<?xml version="1.0" encoding="UTF-8" standalone="no"?>
<!-- Created with Inkscape (http://www.inkscape.org/) -->

<svg
   width="110.51836mm"
   height="110.51836mm"
   viewBox="0 0 110.51836 110.51836"
   version="1.1"
   id="svg5"
   sodipodi:docname="pata.svg"
   xml:space="preserve"
   inkscape:version="1.2.1 (9c6d41e410, 2022-07-14)"
   xmlns:inkscape="http://www.inkscape.org/namespaces/inkscape"
   xmlns:sodipodi="http://sodipodi.sourceforge.net/DTD/sodipodi-0.dtd"
   xmlns="http://www.w3.org/2000/svg"
   xmlns:svg="http://www.w3.org/2000/svg"><sodipodi:namedview
     id="namedview7"
     pagecolor="#ffffff"
     bordercolor="#000000"
     borderopacity="0.25"
     inkscape:showpageshadow="true"
     inkscape:pageopacity="0"
     inkscape:pagecheckerboard="true"
     inkscape:deskcolor="#d1d1d1"
     inkscape:document-units="mm"
     showgrid="false"
     inkscape:zoom="0.2102413"
     inkscape:cx="784.81249"
     inkscape:cy="190.25757"
     inkscape:window-width="1024"
     inkscape:window-height="705"
     inkscape:window-x="-8"
     inkscape:window-y="-8"
     inkscape:window-maximized="1"
     inkscape:current-layer="layer1"
     showborder="true"
     borderlayer="true"
     shape-rendering="auto" /><defs
     id="defs2" /><g
     inkscape:label="Camada 1"
     inkscape:groupmode="layer"
     id="layer1"
     transform="translate(250.95198,-85.060738)"><g
       id="g297"
       transform="matrix(0.96583895,0,0,0.98846839,-131.25066,25.889158)"><path
         style="fill:#e3d7c9;stroke-width:1.38148"
         d="m -98.315124,168.708 c -5.790776,-4.55502 -7.200606,-11.68334 -4.593776,-23.22676 4.425599,-19.59713 14.171112,-33.21591 26.359165,-36.83537 7.951393,-2.36131 9.098345,-2.46378 9.098345,-0.81286 0,0.66962 -2.952912,1.95969 -6.562027,2.86685 -9.913391,2.49172 -15.271724,7.36698 -20.420139,18.57916 -11.435754,24.90468 -9.005764,39.50309 6.575504,39.50309 5.741029,0 17.643704,-4.15951 17.643704,-6.16577 0,-0.32103 -1.308939,-2.80218 -2.908751,-5.51366 -3.605844,-6.11145 -2.643667,-11.33879 2.443065,-13.27276 2.722114,-1.03495 4.399412,-0.84657 6.868814,0.77145 4.000564,2.62127 4.158217,6.81541 0.48278,12.84377 l -2.77412,4.55005 5.887613,2.67238 c 8.465644,3.84255 17.860014,3.59231 22.7337,-0.60556 3.432411,-2.95645 3.855867,-4.21216 3.699302,-10.96987 -0.248474,-10.72482 -6.597784,-23.72958 -16.343774,-33.47556 -4.210422,-4.21043 -7.655314,-7.92561 -7.655314,-8.25596 0,-4.27179 15.445654,11.81235 20.562456,21.41246 8.168861,15.32635 8.408212,28.43582 0.630869,34.55348 -5.098068,4.01014 -15.641776,3.78679 -24.908314,-0.52765 -6.474889,-3.01467 -7.343952,-3.12635 -8.979617,-1.15399 -5.127458,6.18294 -21.572903,7.99237 -27.839485,3.06308 z m 33.404945,-13.11494 c 3.334465,-7.31836 0.474692,-12.00737 -5.404247,-8.86106 -3.220507,1.72356 -3.410285,5.172 -0.512327,9.30941 2.772969,3.95897 3.949071,3.86985 5.916574,-0.44835 z m -53.655951,-40.68865 c -2.09915,-2.09914 -2.76296,-4.60493 -2.76296,-10.4297 0,-9.434179 2.64768,-14.863226 8.41331,-17.25143 3.71162,-1.537402 4.95844,-1.508284 7.97757,0.186305 7.991979,4.485784 12.211569,16.369955 8.364554,23.558165 -3.342545,6.2456 -17.202584,8.72655 -21.992474,3.93666 z m 18.01529,-3.50443 c 7.083292,-6.41029 -0.66748,-23.930247 -9.72641,-21.985727 -5.79491,1.243889 -8.28888,5.551038 -8.28888,14.315077 0,4.42028 0.75565,8.636 1.72685,9.63396 2.35782,2.42278 12.83766,1.15961 16.28844,-1.96331 z m 70.85354,4.25353 c -7.934982,-3.45167 -9.84809,-13.22847 -4.222121,-21.57684 4.725856,-7.012697 9.234495,-9.115362 14.695379,-6.85339 5.765632,2.388204 8.413312,7.817251 8.413312,17.25143 0,5.82477 -0.663815,8.33056 -2.762959,10.4297 -3.229529,3.22953 -9.727367,3.53142 -16.123611,0.7491 z m 14.465836,-2.40687 c 2.6286,-2.6286 2.094147,-16.861146 -0.759814,-20.233946 -3.035887,-3.587798 -8.660748,-4.874303 -11.460603,-2.621239 -9.181757,7.388624 -9.147388,20.146145 0.0634,23.532885 3.760282,1.38263 10.470765,1.00855 12.15702,-0.6777 z M -90.952697,94.441066 c -3.037872,-2.465103 -3.423109,-3.8068 -3.313404,-11.539858 0.181185,-12.771583 4.947737,-20.493016 12.650633,-20.493016 5.430477,0 14.164078,13.162462 14.164078,21.346766 0,9.514786 -15.986625,16.783952 -23.501307,10.686108 z m 14.516893,-2.240028 c 5.675728,-2.371471 7.277186,-7.006655 5.021737,-14.534673 -5.209519,-17.387828 -18.013503,-16.073967 -20.28184,2.081189 -1.606657,12.859241 3.775938,17.251875 15.260103,12.453484 z m 22.10847,3.755236 c -8.214541,-1.987216 -12.087915,-11.543889 -8.327443,-20.546073 8.485771,-20.314057 24.455083,-15.486732 24.781058,7.491007 0.107949,7.609559 -0.301079,9.095524 -3.137236,11.397206 -3.133823,2.54325 -7.440218,3.079387 -13.316379,1.65786 z m 12.560599,-5.228131 c 2.937004,-4.482432 1.580726,-16.983736 -2.390276,-22.032047 -5.174828,-6.578729 -11.274421,-3.959838 -15.755404,6.764665 -3.248096,7.773788 -1.723927,14.232979 3.939773,16.696141 6.901383,3.001436 11.613669,2.527497 14.205907,-1.428759 z"
         id="path311" /><path
         style="fill:#d9c8b4;stroke-width:1.38148"
         d="m -96.036553,170.15034 c -10.277087,-4.13964 -10.313277,-22.76518 -0.08454,-43.50335 5.408149,-10.9647 15.862817,-18.76978 24.815595,-18.52645 4.215223,0.11457 4.066069,0.25521 -2.056543,1.93913 -12.228042,3.36311 -17.993193,9.33947 -23.741482,24.61127 -7.363547,19.56316 -5.832377,31.26597 4.449354,34.0066 5.847455,1.55865 13.744858,0.21212 19.017301,-3.24252 4.114851,-2.69616 4.087188,-2.33018 0.659557,-8.7254 -1.519628,-2.8353 -2.762959,-5.89697 -2.762959,-6.80371 0,-4.9027 9.824401,-8.04675 13.538499,-4.33265 2.331053,2.33105 2.070375,5.2376 -1.011973,11.28345 l -2.669749,5.23656 5.778078,2.62334 c 7.860946,3.569 19.399579,3.56806 22.969516,-0.002 8.392007,-8.39196 2.211645,-29.55082 -13.417811,-45.93667 -4.206348,-4.40992 -7.021786,-8.01804 -6.256531,-8.01804 2.189376,0 14.716342,13.85698 18.733249,20.7222 6.829003,11.67131 8.826738,26.10914 4.566478,33.00239 -3.908725,6.32445 -19.85221,7.17734 -29.355353,1.57034 -4.300909,-2.53759 -5.222239,-2.65946 -7.177498,-0.94937 -6.676669,5.83946 -18.380925,8.11105 -25.993192,5.04481 z m 32.247847,-17.59752 c 1.157256,-4.60871 -0.444296,-7.51555 -3.86079,-7.00738 -5.120458,0.76161 -6.34652,4.55251 -3.30125,10.20723 2.495071,4.63307 2.803088,4.79887 4.529711,2.43825 1.018928,-1.39308 2.203476,-3.93022 2.632329,-5.6381 z m -54.777424,-37.64841 c -2.00351,-2.0035 -2.76296,-4.60493 -2.76296,-9.4642 0,-9.852243 2.18331,-14.812551 7.66473,-17.413656 4.30792,-2.044243 5.07047,-2.048053 8.94453,-0.0447 8.36721,4.326852 11.805005,14.582016 7.608608,22.696946 -3.504238,6.77645 -16.370098,9.31042 -21.454908,4.22561 z m 15.63246,-1.58829 c 4.151663,-2.18526 5.044864,-3.85466 5.063413,-9.46354 0.02029,-6.134204 -4.407223,-13.487988 -8.781773,-14.585932 -3.93892,-0.988604 -8.50034,1.118227 -10.49653,4.848134 -2.17028,4.055202 -2.27392,16.020988 -0.16082,18.567118 2.15311,2.59434 9.99455,2.94029 14.37571,0.63422 z m 73.439481,2.42279 c -10.725157,-4.67295 -9.4453,-21.800091 2.074198,-27.757054 3.874062,-2.003355 4.636607,-1.999545 8.944528,0.04471 5.481421,2.601098 7.664733,7.561406 7.664733,17.413644 0,11.06541 -7.471389,15.18379 -18.683459,10.2987 z m 14.663753,-3.05701 c 2.113099,-2.54613 2.009453,-14.511916 -0.160824,-18.567118 -3.703217,-6.919524 -12.227066,-6.688228 -16.579351,0.449883 -2.705873,4.437859 -3.595934,12.774215 -1.668006,15.622635 3.242222,4.79022 15.162351,6.40559 18.408181,2.4946 z M -89.070921,95.636313 c -4.417804,-1.878053 -6.319202,-9.11723 -4.673676,-17.794054 2.140031,-11.284335 5.432185,-15.434067 12.244481,-15.434067 6.748638,0 15.672513,16.541572 13.095169,24.273606 -2.424512,7.273534 -13.416507,12.036338 -20.665974,8.954515 z m 16.384469,-5.614664 c 3.32826,-4.110226 3.078998,-10.586178 -0.658951,-17.1199 -3.783952,-6.614132 -6.460106,-8.396731 -10.92382,-7.27641 -4.284162,1.075256 -6.753141,6.289263 -7.672361,16.202542 -0.574245,6.192915 -0.230467,8.158517 1.778213,10.167196 3.474672,3.474673 14.030474,2.282752 17.476919,-1.973428 z m 16.288483,4.503795 c -8.586043,-4.290616 -10.191764,-13.554847 -4.088798,-23.590369 8.275199,-13.607475 20.290931,-9.406943 22.586224,7.895829 1.983397,14.951574 -6.159095,21.860246 -18.497426,15.69454 z m 14.405273,-2.51412 c 5.142929,-5.14293 0.843795,-24.698947 -5.796101,-26.365455 -4.545456,-1.140836 -7.20496,0.612544 -11.00562,7.25588 -4.919132,8.598363 -3.685913,17.263809 2.830543,19.889349 4.836604,1.948714 11.621369,1.570035 13.971178,-0.779774 z"
         id="path309" /><path
         style="fill:#c9b092;stroke-width:1.38148"
         d="m -97.461494,168.8198 c -2.449002,-1.49322 -4.861066,-4.34188 -5.360146,-6.33036 -2.70721,-10.78638 3.556129,-33.59006 12.059359,-43.90596 5.122929,-6.215 13.290294,-10.61973 19.456787,-10.49322 4.227858,0.0867 4.09667,0.21396 -1.880938,1.82406 -13.06175,3.51826 -19.942948,11.45024 -25.558541,29.46141 -3.761327,12.06387 -3.943457,21.78002 -0.486347,25.94557 4.906021,5.9114 18.809579,5.46869 26.848715,-0.8549 3.683791,-2.89767 3.693802,-2.95221 1.076946,-5.8666 -4.047217,-4.50739 -4.730127,-7.81087 -2.361881,-11.42528 2.992258,-4.56676 9.852864,-4.50338 11.955064,0.11045 1.25274,2.74947 0.998402,4.39944 -1.382194,8.96671 l -2.917435,5.59722 3.552052,2.3274 c 3.88468,2.54534 16.319554,4.06957 21.858581,2.67936 5.230641,-1.3128 8.190996,-8.12001 7.193608,-16.54139 -1.168162,-9.8633 -6.834589,-20.46685 -16.403861,-30.69643 -4.557353,-4.87183 -7.660116,-8.85787 -6.895027,-8.85787 0.765088,0 4.816996,3.70041 9.004238,8.22313 17.286371,18.67135 21.588441,42.73412 8.820657,49.3366 -5.226499,2.70273 -15.544212,1.72755 -23.531071,-2.22403 -4.883781,-2.4163 -5.869582,-2.51555 -7.783398,-0.78356 -6.900719,6.24506 -20.00968,7.93154 -27.265168,3.50769 z m 34.123824,-18.26076 c 0.03698,-4.47566 -1.748863,-5.80842 -6.264455,-4.67507 -4.084469,1.02513 -4.550389,6.00549 -1.060153,11.33226 l 2.315029,3.53318 2.489431,-3.23641 c 1.369187,-1.78003 2.503253,-4.90931 2.520148,-6.95396 z m -54.34353,-35.74869 c -3.72663,-2.93137 -3.91188,-3.57785 -3.38707,-11.81992 0.43285,-6.797823 1.27933,-9.489768 3.84169,-12.217278 6.0872,-6.479529 15.49351,-3.974956 19.893287,5.296892 3.228269,6.803076 2.79512,11.291316 -1.546755,16.027246 -5.308162,5.78992 -13.404302,6.95822 -18.801152,2.71306 z m 14.86832,-1.47783 c 7.016586,-3.19698 7.413352,-13.478392 0.79361,-20.564852 -4.49211,-4.808816 -7.91968,-5.171054 -12.77696,-1.350316 -4.70139,3.698117 -6.49537,15.013448 -3.18202,20.070258 2.50364,3.82105 9.07395,4.62034 15.16537,1.84491 z m 75.816921,3.36608 c -4.136217,-0.8006 -10.062882,-8.10248 -10.062882,-12.39787 0,-4.705936 3.8518,-12.519825 7.394879,-15.001495 4.535748,-3.176961 10.987041,-2.532336 14.750721,1.473917 2.562363,2.72751 3.408838,5.419455 3.84169,12.217278 0.52008,8.1677 0.31574,8.90729 -3.232003,11.69794 -3.653936,2.87419 -6.169992,3.27268 -12.692405,2.01023 z m 12.834392,-5.21099 c 3.313351,-5.05681 1.519371,-16.372141 -3.182023,-20.070258 -4.857281,-3.820738 -8.284852,-3.4585 -12.776959,1.350316 -4.453962,4.767982 -5.801026,9.972052 -3.953268,15.272542 1.563445,4.4849 5.557793,6.64419 12.524774,6.7707 4.011833,0.0729 5.643038,-0.66095 7.387476,-3.3233 z M -88.864322,95.343302 c -4.224702,-2.470471 -4.791167,-3.964271 -4.814023,-12.694876 -0.02572,-9.822647 2.964221,-16.661973 8.23931,-18.846986 6.546272,-2.711555 13.793026,3.355824 16.641127,13.932861 1.650615,6.129917 -0.805876,13.90312 -5.123987,16.214103 -4.43882,2.375584 -12.050293,3.086127 -14.942427,1.394898 z m 16.32044,-5.497718 c 4.698023,-5.801815 1.179423,-19.105192 -6.301144,-23.823813 -3.899965,-2.460034 -9.789893,0.612305 -11.668172,6.086419 -2.491306,7.260744 -2.232098,17.304963 0.517544,20.054603 3.392632,3.392632 13.964923,1.988866 17.451772,-2.317209 z m 17.525808,5.294773 c -6.902358,-2.353819 -10.542753,-9.956188 -8.227747,-17.182302 2.086533,-6.512951 7.388136,-13.715712 10.920735,-14.836916 4.213074,-1.337177 10.701821,2.804627 12.372245,7.897273 1.766246,5.384781 2.292242,15.800293 1.002237,19.84583 -0.899552,2.821055 -6.222841,6.160033 -9.570445,6.002964 -0.914016,-0.04288 -3.837677,-0.819967 -6.497025,-1.726849 z m 13.937305,-3.950007 c 2.11609,-3.95395 0.793262,-18.199132 -2.100052,-22.614887 -1.52946,-2.334251 -3.501183,-3.404312 -6.272877,-3.404312 -7.845884,0 -15.301762,15.615951 -11.155171,23.363928 1.981048,3.701622 5.989754,5.443456 12.794956,5.559575 3.902745,0.06659 5.515461,-0.629043 6.733144,-2.904304 z"
         id="path307" /><path
         style="fill:#b6956c;stroke-width:1.38148"
         d="m -96.310398,169.69691 c -7.824582,-4.52572 -9.089612,-15.79286 -3.60693,-32.12548 6.129627,-18.25984 14.477778,-27.43508 26.401003,-29.01667 5.032973,-0.66761 4.908965,-0.5444 -1.953105,1.94059 -8.723224,3.15899 -14.578154,8.37772 -18.89556,16.84238 -7.75342,15.20126 -9.81107,31.38319 -4.800567,37.75301 5.138452,6.53248 18.030135,6.26063 26.705156,-0.56314 l 3.653969,-2.87421 -2.776178,-3.52934 c -3.100279,-3.94137 -3.64254,-10.02665 -1.118402,-12.55079 2.678312,-2.67831 9.108587,-2.00955 10.784323,1.12159 1.151214,2.15107 0.86599,4.18433 -1.261728,8.99439 l -2.749198,6.21502 3.037181,1.9809 c 9.224624,6.01648 23.716804,5.26436 28.122446,-1.4595 5.521656,-8.42711 -1.240974,-28.46587 -14.187035,-42.03846 -4.32581,-4.53516 -7.206423,-8.24575 -6.401362,-8.24575 2.661345,0 14.334098,14.25213 18.609583,22.72182 2.794968,5.5368 4.430115,11.15338 4.880483,16.764 0.63429,7.90191 0.410118,8.7361 -3.531515,13.14154 -3.917051,4.37797 -4.767034,4.69419 -12.262055,4.56184 -5.29922,-0.0936 -10.057896,-1.16489 -13.915147,-3.13272 l -5.861888,-2.99051 -5.616304,3.71669 c -6.658183,4.40618 -18.079059,5.76782 -23.25717,2.7728 z m 33.003447,-18.94555 c 0,-4.66677 -1.738581,-6.01103 -6.295174,-4.86739 -4.094669,1.02769 -4.548291,6.00869 -1.035467,11.36993 l 2.339713,3.57086 2.495465,-3.08177 c 1.372504,-1.69497 2.495463,-4.8412 2.495463,-6.99163 z m -54.648089,-36.49175 c -3.47159,-3.47159 -3.68172,-4.33862 -2.96556,-12.23658 0.628,-6.925665 1.44354,-9.07894 4.40262,-11.62423 4.8167,-4.143154 10.51045,-4.003403 14.87905,0.3652 10.6532,10.6532 6.822856,24.08333 -7.53312,26.41298 -4.24748,0.68928 -5.63834,0.22728 -8.78299,-2.91737 z m 16.88272,-1.51621 c 5.885199,-3.72182 5.272293,-14.017315 -1.24889,-20.978769 -3.59653,-3.839347 -9.78231,-4.045017 -13.38238,-0.444949 -2.98434,2.984341 -5.01769,13.406708 -3.66616,18.791668 1.52478,6.07519 10.75367,7.40275 18.29743,2.63205 z m 73.712243,3.38219 c -8.417144,-3.35833 -11.675303,-11.35097 -7.73405,-18.972519 5.13314,-9.926397 12.723583,-12.559262 19.472287,-6.754271 2.959076,2.54529 3.774618,4.698565 4.402615,11.62423 0.708877,7.81762 0.483914,8.78711 -2.801269,12.0723 -3.738516,3.73851 -7.589216,4.32458 -13.339583,2.03026 z m 13.441018,-3.63305 c 3.492742,-4.57241 0.912825,-19.933029 -3.768695,-22.438502 -4.742353,-2.538031 -9.301745,-1.580012 -12.91459,2.71361 -4.505679,5.354696 -5.769861,11.329862 -3.430922,16.216282 3.241118,6.77121 15.931107,8.98478 20.114207,3.50861 z M -86.792102,95.846907 c -5.086055,-1.579996 -6.907398,-4.81911 -6.907398,-12.284266 0,-9.088172 2.724506,-16.01594 7.539339,-19.17074 6.217584,-4.073918 12.506637,0.754156 16.638663,12.773417 1.848562,5.377107 0.79931,11.991706 -2.403527,15.152111 -2.107995,2.080069 -11.984839,4.424854 -14.867077,3.529478 z m 12.93775,-4.527913 c 6.421958,-5.051513 4.299933,-18.023751 -4.018754,-24.567232 -4.63117,-3.642879 -8.801904,-2.233951 -12.025179,4.062261 -2.671623,5.218638 -3.213067,16.541568 -0.98965,20.696058 2.028761,3.790776 12.115317,3.677622 17.033583,-0.191087 z m 25.052936,4.852782 c -0.759814,-0.201518 -3.106873,-0.74742 -5.215688,-1.213116 -2.108814,-0.465695 -5.061727,-2.074237 -6.562027,-3.574538 -5.853614,-5.853613 -1.431006,-22.654849 7.245375,-27.524776 3.424327,-1.922024 4.01716,-1.860795 7.577357,0.782604 5.543081,4.115664 7.272583,8.365854 7.295713,17.928952 0.01529,6.325141 -0.581148,8.936747 -2.397223,10.496483 -2.78656,2.393237 -5.955449,3.631667 -7.943507,3.104391 z m 7.321841,-3.647331 c 2.273131,-2.27313 2.088358,-15.35967 -0.29749,-21.06981 -2.70816,-6.481539 -6.862675,-8.541256 -11.327382,-5.615867 -8.985538,5.88755 -11.895481,20.198631 -5.181021,25.480226 4.088085,3.215689 14.079027,3.932318 16.805893,1.205451 z"
         id="path305" /><path
         style="fill:#ab8455;stroke-width:1.38148"
         d="m -89.884325,170.56801 c 1.718441,-0.33044 4.205104,-0.3179 5.525918,0.0279 1.320816,0.34578 -0.08518,0.61614 -3.124435,0.60081 -3.039255,-0.0153 -4.119922,-0.29824 -2.401483,-0.62868 z m -9.909028,-4.65485 c -6.145487,-7.3035 -4.175997,-22.90074 5.10532,-40.43119 3.861959,-7.29443 11.039578,-14.722 14.226576,-14.722 0.679067,0 -1.034915,1.61484 -3.80885,3.58852 -8.758446,6.23173 -17.718073,26.95227 -17.718073,40.97584 0,5.63283 0.67478,7.4377 4.038174,10.80109 2.220993,2.221 3.519587,4.03817 2.885764,4.03817 -0.633824,0 -2.761834,-1.91269 -4.728911,-4.25043 z m 51.423649,3.30673 c 0.997256,-0.39907 2.188782,-0.34999 2.647836,0.10906 0.459053,0.45906 -0.356883,0.78557 -1.813192,0.72558 -1.609344,-0.0663 -1.936696,-0.39364 -0.834644,-0.83464 z m -6.907397,-1.38148 c 0.997255,-0.39907 2.188781,-0.34999 2.647836,0.10906 0.459053,0.45906 -0.356883,0.78557 -1.813192,0.72558 -1.609345,-0.0663 -1.936696,-0.39364 -0.834644,-0.83464 z m 15.029396,-0.45103 c 5.638637,-2.27126 7.783874,-7.48159 6.980472,-16.9541 -0.430446,-5.07516 -0.264409,-7.45947 0.40578,-5.82706 0.623885,1.51963 1.178029,5.66818 1.231433,9.21899 0.07548,5.01919 -0.698886,7.40201 -3.479406,10.70647 -1.967077,2.33774 -4.609156,4.21103 -5.871288,4.16287 -1.652388,-0.0631 -1.447193,-0.42898 0.733009,-1.30717 z m -31.572688,-2.57343 3.229132,-2.88702 -2.883762,-3.66611 c -1.586071,-2.01636 -2.882798,-4.67019 -2.881617,-5.8974 0.0012,-1.2272 1.089096,-0.0554 2.417589,2.6039 2.972482,5.95025 4.488238,5.92475 7.593844,-0.12775 1.328492,-2.58909 2.416408,-3.73834 2.417589,-2.55389 0.0012,1.18445 -0.91058,3.36028 -2.026138,4.83518 -3.01629,3.98789 -2.569474,5.61236 2.072582,7.53516 2.303803,0.95427 3.91574,2.00802 3.582079,2.34168 -0.33366,0.33367 -2.528031,-0.38692 -4.876379,-1.6013 -3.921813,-2.02805 -4.579537,-2.02411 -8.071888,0.0483 l -3.802165,2.25627 z m -2.190982,-16.65533 c 0.279277,-1.08544 1.462471,-2.57573 2.62932,-3.31176 2.610058,-1.64638 9.456584,-0.10123 9.456584,2.1342 0,1.23966 -0.398111,1.23334 -1.657776,-0.0263 -2.438299,-2.4383 -7.647604,-2.01748 -9.405596,0.75981 -0.887266,1.40171 -1.316938,1.58831 -1.022532,0.44407 z m 35.040437,-14.65312 c -2.154865,-4.11574 -7.076082,-10.69151 -10.936039,-14.61283 -3.859956,-3.92133 -5.711372,-6.43034 -4.114256,-5.57559 1.597116,0.85475 5.030448,4.03855 7.629627,7.0751 4.80754,5.61653 12.792322,19.14276 11.854145,20.08094 -0.283548,0.28354 -2.278613,-2.85188 -4.433477,-6.96762 z m -80.207602,-20.28995 c -1.19211,-1.70198 -2.06829,-5.55003 -1.96597,-8.63425 l 0.18459,-5.563901 0.93408,6.733761 c 0.57985,4.1801 1.91974,7.45448 3.53316,8.63424 1.42949,1.04527 1.89384,1.90049 1.03189,1.90049 -0.86196,0 -2.53494,-1.38165 -3.71775,-3.07034 z m 15.32474,1.06901 c 2.39318,-1.04126 5.016353,-3.03734 5.829277,-4.43574 0.812926,-1.3984 1.496951,-1.81058 1.520055,-0.91596 0.05631,2.18044 -6.672132,7.36675 -9.469282,7.29896 -1.22721,-0.0297 -0.27323,-0.90601 2.11995,-1.94726 z m 71.816443,-0.86189 c -2.002003,-1.57478 -3.6211,-3.59519 -3.597995,-4.48981 0.0231,-0.89462 0.707129,-0.48244 1.520055,0.91596 0.812924,1.3984 3.4361,3.39448 5.829278,4.43574 2.393179,1.04125 3.347155,1.91752 2.11995,1.94726 -1.227207,0.0297 -3.869287,-1.23438 -5.871288,-2.80915 z m 16.390216,0.96273 c 1.613421,-1.17976 2.953307,-4.45414 3.533158,-8.63424 l 0.934086,-6.733761 0.184583,5.563901 c 0.186144,5.61092 -2.77292,11.70459 -5.683712,11.70459 -0.861952,0 -0.397603,-0.85522 1.031885,-1.90049 z m -57.675536,-5.92183 c 0.949767,-0.38324 2.503931,-0.38324 3.453698,0 0.949768,0.38324 0.172685,0.6968 -1.726849,0.6968 -1.899534,0 -2.676617,-0.31356 -1.726849,-0.6968 z m -22.921653,-4.61099 c 0,-1.89954 0.313558,-2.67662 0.696799,-1.72685 0.383239,0.94976 0.383239,2.50393 0,3.4537 -0.383241,0.94976 -0.696799,0.17268 -0.696799,-1.72685 z m 59.403618,0 c 0,-1.89954 0.313559,-2.67662 0.696799,-1.72685 0.383239,0.94976 0.383239,2.50393 0,3.4537 -0.38324,0.94976 -0.696799,0.17268 -0.696799,-1.72685 z m -61.003226,-5.419927 c 0,-0.701517 -1.609427,-3.18818 -3.576502,-5.525918 -5.46411,-6.493725 -13.30904,-5.627649 -16.5545,1.827609 -1.17019,2.688079 -1.88466,3.35938 -1.9186,1.80267 -0.0847,-3.885145 6.18038,-9.262191 10.79186,-9.262191 2.92271,0 5.26829,1.371467 8.35167,4.883248 3.90156,4.44363 5.381449,7.550067 3.596811,7.550067 -0.379907,0 -0.690739,-0.573968 -0.690739,-1.275485 z m 62.208586,0.287446 c -0.02311,-0.923329 1.887387,-3.876241 4.24554,-6.562028 3.083386,-3.511781 5.428963,-4.883248 8.351672,-4.883248 4.611482,0 10.876555,5.377046 10.791857,9.262191 -0.03394,1.55671 -0.748407,0.885409 -1.918596,-1.80267 -4.084941,-9.383647 -13.896866,-7.953016 -19.900326,2.901575 -0.840475,1.519628 -1.547043,2.007508 -1.570147,1.08418 z m -55.777816,-5.682767 c -1.657256,-1.831247 -2.220726,-4.777093 -2.04789,-10.706466 l 0.238442,-8.180098 0.797668,8.946726 c 0.691717,7.758374 1.256405,9.177758 4.251366,10.686101 2.151922,1.083765 2.623159,1.74705 1.250222,1.759739 -1.211912,0.01119 -3.232326,-1.116499 -4.489808,-2.506002 z m 12.022273,1.105922 c 4.867224,-1.458575 9.176547,-5.217046 9.176547,-8.003529 0,-1.148595 0.367595,-1.72076 0.816877,-1.271477 2.998321,2.998322 -5.516354,10.86033 -11.454739,10.57671 -1.459504,-0.06971 -0.856047,-0.607253 1.461315,-1.301704 z m 20.334377,-2.156058 c -5.846911,-4.91985 -5.895355,-12.629502 -0.13642,-21.7104 2.262707,-3.567918 4.865678,-6.487125 5.78438,-6.487125 0.918703,0 0.07585,1.709581 -1.872995,3.799069 -5.049868,5.41429 -6.643918,9.069977 -6.643918,15.236712 0,6.007213 2.742547,9.389707 9.176546,11.317802 3.23151,0.968397 3.402946,1.2045 0.945174,1.301704 -1.651284,0.0653 -4.915029,-1.490684 -7.252767,-3.457762 z m 15.09028,1.796399 c 2.994961,-1.508343 3.559649,-2.927727 4.251366,-10.686101 l 0.797668,-8.946726 0.238442,8.420134 c 0.24551,8.669734 -2.028269,13.021696 -6.777735,12.972432 -1.079891,-0.0112 -0.409275,-0.803084 1.490259,-1.759739 z M -70.059259,79.676686 c -0.197611,-3.30069 -5.126752,-11.69626 -8.273466,-14.091799 -1.233496,-0.939039 -1.561987,-1.727115 -0.729983,-1.75128 3.414249,-0.09916 10.843371,12.264894 9.782788,16.28119 -0.487748,1.847041 -0.647918,1.756999 -0.779339,-0.438111 z m -22.253598,-7.066463 c -0.0077,-2.319215 5.489038,-8.836124 7.347872,-8.711487 1.03392,0.06932 0.956112,0.376708 -0.213548,0.843623 -1.012071,0.404007 -3.030161,2.686175 -4.484643,5.071483 -1.454484,2.385309 -2.64684,3.643681 -2.649681,2.796381 z m 50.388585,-2.008472 c -0.498949,-1.572052 -2.872089,-4.056391 -5.273642,-5.520754 -2.401554,-1.464362 -3.541559,-2.664801 -2.533344,-2.667641 2.190165,-0.0062 9.909459,7.440064 9.909459,9.558925 0,2.431908 -1.129263,1.69578 -2.102473,-1.37053 z"
         id="path303" /><path
         style="fill:#a37945;stroke-width:1.38148"
         d="m -89.183399,170.58772 c 1.344134,-0.35026 3.209131,-0.32723 4.144438,0.0512 0.935306,0.37843 -0.16444,0.66501 -2.443881,0.63685 -2.279441,-0.0281 -3.044693,-0.33776 -1.700557,-0.68803 z m -10.036902,-3.87238 c -1.781709,-1.89654 -2.977989,-3.62542 -2.658399,-3.84197 0.31958,-0.21655 2.250997,1.33517 4.292029,3.44825 2.041031,2.11309 3.237311,3.84197 2.6584,3.84197 -0.578912,0 -2.510325,-1.55171 -4.29203,-3.44825 z m 43.9432,1.12307 c 0.997255,-0.39907 2.188781,-0.34999 2.647836,0.10906 0.459053,0.45906 -0.356883,0.78557 -1.813192,0.72558 -1.609345,-0.0663 -1.936696,-0.39364 -0.834644,-0.83464 z m -8.407979,-2.62659 c -2.107505,-1.14301 -4.534804,-1.64373 -5.393998,-1.11272 -0.960809,0.59381 -1.179541,0.34637 -0.568206,-0.64279 0.546682,-0.88455 -0.289766,-3.24027 -1.858769,-5.23494 -1.569004,-1.99466 -2.83383,-4.31991 -2.810725,-5.16721 0.0231,-0.84729 0.725117,-0.29721 1.560028,1.22242 2.105893,3.83295 6.8212,8.22486 11.619364,10.82245 2.225901,1.20504 3.425427,2.19098 2.665613,2.19098 -0.759813,0 -3.105802,-0.93518 -5.213307,-2.07819 z m 27.46335,-0.78421 c 1.439123,-2.01507 2.892884,-3.39655 3.230579,-3.06996 0.337695,0.3266 -0.83977,1.97529 -2.616589,3.66377 l -3.230579,3.06995 z m -66.753,-10.15103 c 0.0104,-3.79907 0.27866,-5.18927 0.5962,-3.08933 0.31754,2.09993 0.30905,5.20826 -0.0189,6.90739 -0.32791,1.69914 -0.58771,-0.019 -0.57734,-3.81806 z m 38.397216,2.07222 c 2.013937,-4.22875 2.652043,-5.01248 2.652043,-3.25725 0,0.74123 -0.966794,2.55442 -2.14843,4.02932 -2.025772,2.52853 -2.054524,2.48445 -0.503613,-0.77207 z m 32.039377,-2.76296 c 0,-3.41916 0.269411,-4.81791 0.598691,-3.10833 0.329279,1.70958 0.329279,4.50708 0,6.21666 -0.32928,1.70958 -0.598691,0.31083 -0.598691,-3.10833 z m -41.82065,-5.44439 c 0,-0.71497 0.614546,-1.67976 1.365656,-2.14397 0.783106,-0.48398 1.014706,0.0705 0.542937,1.29995 -0.918395,2.3933 -1.908593,2.83119 -1.908593,0.84402 z m 10.268997,-1.35194 c -0.709159,-0.6734 -2.532712,-1.52342 -4.052339,-1.88894 l -2.762959,-0.66458 2.762959,-0.1391 c 3.075524,-0.15483 7.240683,2.01802 6.084551,3.17415 -0.408556,0.40856 -1.323051,0.19187 -2.032212,-0.48153 z m 26.913645,-10.06462 c -1.028876,-2.48393 -4.856782,-8.5651 -8.506458,-13.51372 -6.00389,-8.14072 -6.11306,-8.41193 -1.146445,-2.84815 5.628864,6.30565 13.313353,19.08833 12.165359,20.23632 -0.352975,0.35298 -1.483579,-1.39053 -2.512456,-3.87445 z m -60.625484,-4.55198 c 0,-0.75982 0.602626,-2.31398 1.33917,-3.4537 0.736544,-1.13972 1.33917,-1.45056 1.33917,-0.69074 0,0.75981 -0.602626,2.31398 -1.33917,3.4537 -0.736544,1.13972 -1.33917,1.45055 -1.33917,0.69074 z m 5.060135,-10.46731 c 1.372631,-2.33786 3.378484,-4.97994 4.457453,-5.87129 1.078969,-0.89135 0.219275,1.02144 -1.910429,4.25065 -4.471867,6.78056 -6.235411,7.90268 -2.547024,1.62064 z m -25.852346,-7.52531 c -2.53958,-3.06001 -1.09446,-3.4118 1.75456,-0.42711 1.32967,1.39299 1.87204,2.53271 1.20526,2.53271 -0.66678,0 -1.9987,-0.94752 -2.95982,-2.1056 z m 14.74004,0.10427 c 2.39318,-1.04125 5.016353,-3.03733 5.829277,-4.43573 0.812926,-1.3984 1.496951,-1.81059 1.520055,-0.91597 0.05631,2.18044 -6.672132,7.36675 -9.469282,7.29897 -1.22721,-0.0298 -0.27323,-0.90601 2.11995,-1.94727 z m 71.816443,-0.86189 c -2.002003,-1.57478 -3.6211,-3.59519 -3.597995,-4.48981 0.0231,-0.89462 0.707129,-0.48244 1.520055,0.91596 0.812924,1.3984 3.4361,3.39448 5.829278,4.43574 2.393179,1.04125 3.347155,1.91752 2.11995,1.94726 -1.227207,0.0297 -3.869287,-1.23438 -5.871288,-2.80915 z m 16.736819,0.33051 c 1.329674,-1.39299 2.661593,-2.34051 2.959821,-2.1056 0.816083,0.64281 -2.77177,4.63831 -4.165086,4.63831 -0.666778,0 -0.124409,-1.13972 1.205265,-2.53271 z m -105.708042,-8.51912 c 0,-2.65935 0.2843,-3.74727 0.63178,-2.41759 0.34748,1.32967 0.34748,3.5055 0,4.83518 -0.34748,1.32967 -0.63178,0.24175 -0.63178,-2.41759 z m 47.685903,3.22951 c 0.949767,-0.38324 2.503931,-0.38324 3.453698,0 0.949768,0.38324 0.172685,0.6968 -1.726849,0.6968 -1.899534,0 -2.676617,-0.31356 -1.726849,-0.6968 z m 61.450975,-3.22951 c 0,-2.65935 0.284301,-3.74727 0.631782,-2.41759 0.34748,1.32967 0.34748,3.5055 0,4.83518 -0.347481,1.32967 -0.631782,0.24175 -0.631782,-2.41759 z M -97.843938,98.6629 c 0,-0.828153 -1.6877,-3.573843 -3.750442,-6.101535 -3.08411,-3.779266 -3.1841,-4.107654 -0.56278,-1.848301 3.723283,3.209168 6.263375,7.505415 5.115889,8.6529 -0.441467,0.441467 -0.802667,0.125089 -0.802667,-0.703064 z m 62.208586,0.03092 c -0.02311,-0.937774 1.667572,-3.454384 3.75706,-5.592462 2.089487,-2.138077 2.796053,-2.614135 1.570146,-1.057905 -1.225907,1.55623 -2.916583,4.072841 -3.757059,5.592468 -0.840475,1.519628 -1.547043,1.995684 -1.570147,1.057905 z m -55.477404,-5.547707 c -1.75381,-2.236277 -1.688791,-2.265595 0.866955,-0.390915 1.519627,1.114672 3.021986,2.202587 3.338576,2.41759 0.316588,0.215003 -0.07354,0.390914 -0.866956,0.390914 -0.793414,0 -2.295773,-1.087915 -3.338575,-2.417589 z m 45.880161,2.026675 c 0.31659,-0.215003 1.818949,-1.302918 3.338576,-2.41759 2.555746,-1.87468 2.620765,-1.845362 0.866955,0.390915 -1.042802,1.329674 -2.545161,2.417589 -3.338575,2.417589 -0.793414,0 -1.183544,-0.175911 -0.866956,-0.390914 z m -29.494587,-2.54347 c 0.937105,-0.944128 2.05183,-1.368592 2.47717,-0.943252 0.425341,0.425339 -0.341381,1.197809 -1.703825,1.716597 -1.968881,0.749708 -2.127564,0.591026 -0.773345,-0.773345 z m 14.742673,-1.555424 -2.631702,-3.108329 3.108329,2.631702 c 2.921062,2.473149 3.737235,3.584955 2.631701,3.584955 -0.262145,0 -1.660893,-1.398747 -3.108328,-3.108328 z m -55.385361,-1.38148 c 1.44966,-1.329674 4.27646,-2.353954 6.28177,-2.276179 3.34293,0.129651 3.27349,0.229849 -0.83527,1.205259 -2.46471,0.585116 -5.29151,1.609396 -6.28177,2.276178 -0.99026,0.666782 -0.61438,0.124416 0.83527,-1.205258 z m 99.437511,1.578546 c -0.841379,-0.841379 -3.607792,-2.021077 -6.147584,-2.621548 -4.133263,-0.977209 -4.23523,-1.106605 -0.971778,-1.233177 2.005312,-0.07778 5.113641,1.081239 6.907397,2.575589 1.793756,1.494349 2.919459,2.73768 2.501561,2.762959 -0.417898,0.02528 -1.448216,-0.642442 -2.289596,-1.483823 z M -93.28552,83.130384 c 0,-4.178975 0.25898,-5.888556 0.57551,-3.799068 0.316532,2.089488 0.316532,5.508649 0,7.598137 -0.31653,2.089488 -0.57551,0.379907 -0.57551,-3.799069 z m 22.699848,4.033701 c 0.488503,-1.868042 1.114718,-2.494257 1.459602,-1.459604 0.33222,0.996656 -0.05279,2.468923 -0.855568,3.271703 -1.025152,1.025152 -1.204942,0.485778 -0.604034,-1.812099 z m 30.872936,0.686355 c 0.06628,-1.609345 0.39364,-1.936696 0.834644,-0.834644 0.39907,0.997255 0.34999,2.188781 -0.109067,2.647836 -0.459055,0.459053 -0.785566,-0.356883 -0.725581,-1.813192 z m 0.160255,-8.173754 c 0.02815,-2.279441 0.337769,-3.044693 0.688034,-1.700557 0.350265,1.344134 0.32723,3.209131 -0.05118,4.144438 -0.378425,0.935306 -0.665006,-0.16444 -0.636851,-2.443881 z M -72.77801,72.423918 c -1.507472,-3.522834 -1.473371,-3.604084 0.468992,-1.117438 1.152068,1.474897 2.09467,3.184478 2.09467,3.799069 0,2.099721 -0.937102,1.119496 -2.563662,-2.681631 z m 10.852539,3.156268 c 0,-1.445207 5.547585,-10.409035 6.442003,-10.409035 0.379907,0 -0.711251,2.331247 -2.424795,5.180548 -3.817065,6.347063 -4.017208,6.607553 -4.017208,5.228487 z m -26.631856,-9.097177 c 1.688475,-1.776819 3.33717,-2.954284 3.663767,-2.616589 0.326595,0.337695 -1.054884,1.791456 -3.069956,3.23058 l -3.663765,2.616588 z m 43.401934,0.02366 c -1.793756,-1.494349 -2.66719,-2.716999 -1.940963,-2.716999 0.726228,0 2.445614,1.243332 3.820858,2.762959 3.159278,3.490963 2.34169,3.470974 -1.879895,-0.04596 z"
         id="path301" /><path
         style="fill:#98692f;stroke-width:1.38148"
         d="m -100.04741,165.67378 -2.63171,-3.10832 3.108332,2.6317 c 1.709581,1.44743 3.108329,2.84618 3.108329,3.10833 0,1.10553 -1.111806,0.28936 -3.584951,-2.63171 z m 63.82568,-1.24617 c 1.439123,-2.01507 2.892884,-3.39655 3.230579,-3.06996 0.337695,0.3266 -0.83977,1.97529 -2.616589,3.66377 l -3.230579,3.06995 z m -33.433136,-4.27974 -2.631702,-3.10833 3.108329,2.6317 c 2.921063,2.47315 3.737235,3.58496 2.631702,3.58496 -0.262145,0 -1.660893,-1.39875 -3.108329,-3.10833 z m -33.605924,-1.84198 c 0.0663,-1.60934 0.39364,-1.93669 0.83464,-0.83464 0.39907,0.99726 0.34999,2.18878 -0.10907,2.64784 -0.45905,0.45905 -0.78556,-0.35689 -0.72558,-1.8132 z m 0,-6.90739 c 0.0663,-1.60935 0.39364,-1.9367 0.83464,-0.83465 0.39907,0.99726 0.34999,2.18878 -0.10907,2.64784 -0.45905,0.45905 -0.78556,-0.35688 -0.72558,-1.81319 z m 34.082551,-7.01647 c 0.949767,-0.38323 2.503932,-0.38323 3.453699,0 0.949767,0.38324 0.172685,0.6968 -1.72685,0.6968 -1.899534,0 -2.676616,-0.31356 -1.726849,-0.6968 z m 25.035786,-19.46189 c -1.718382,-2.1911 -1.669519,-2.23997 0.521585,-0.52159 2.301197,1.80473 3.033009,2.93918 1.896005,2.93918 -0.286873,0 -1.374788,-1.08792 -2.41759,-2.41759 z m -5.525918,-6.9074 c -1.718382,-2.1911 -1.669519,-2.23996 0.521585,-0.52158 2.301197,1.80472 3.033009,2.93917 1.896005,2.93917 -0.286873,0 -1.374788,-1.08791 -2.41759,-2.41759 z m -69.073979,-4.14444 c -1.71838,-2.1911 -1.66951,-2.23996 0.52159,-0.52158 1.32967,1.0428 2.41759,2.13072 2.41759,2.41759 0,1.137 -1.13445,0.40519 -2.93918,-1.89601 z m 102.405702,1.89601 c 0,-0.28687 1.087915,-1.37479 2.417589,-2.41759 2.191104,-1.71838 2.239967,-1.66952 0.521585,0.52158 -1.804722,2.3012 -2.939174,3.03301 -2.939174,1.89601 z m -85.651732,-1.38148 c 0,-0.28687 1.08792,-1.37479 2.417592,-2.41759 2.191104,-1.71838 2.239967,-1.66952 0.521585,0.52158 -1.804727,2.3012 -2.939177,3.03301 -2.939177,1.89601 z m 68.897763,-1.89601 c -1.718382,-2.1911 -1.669519,-2.23996 0.521585,-0.52158 1.329674,1.0428 2.417589,2.13072 2.417589,2.41759 0,1.137 -1.134452,0.40519 -2.939174,-1.89601 z m -38.764238,-4.05203 c 0.997255,-0.39907 2.188781,-0.34999 2.647836,0.10906 0.459053,0.45906 -0.356883,0.78557 -1.813192,0.72559 -1.609345,-0.0663 -1.936696,-0.39364 -0.834644,-0.83465 z m 59.880774,-3.20073 c 0,-1.89954 0.313559,-2.67662 0.696799,-1.72685 0.383239,0.94976 0.383239,2.50393 0,3.4537 -0.38324,0.94976 -0.696799,0.17268 -0.696799,-1.72685 z m -90.118859,-13.469429 -3.34914,-3.799068 3.79907,3.34914 c 3.550804,3.130276 4.432601,4.248997 3.349143,4.248997 -0.24746,0 -1.957043,-1.709581 -3.799073,-3.799069 z m 10.980184,1.38148 c -1.75381,-2.236277 -1.688791,-2.265595 0.866955,-0.390915 1.519627,1.114672 3.021986,2.202587 3.338576,2.41759 0.316588,0.215003 -0.07354,0.390914 -0.866956,0.390914 -0.793414,0 -2.295773,-1.087915 -3.338575,-2.417589 z m 45.880161,2.026675 c 0.31659,-0.215003 1.818949,-1.302918 3.338576,-2.41759 2.555746,-1.87468 2.620765,-1.845362 0.866955,0.390915 -1.042802,1.329674 -2.545161,2.417589 -3.338575,2.417589 -0.793414,0 -1.183544,-0.175911 -0.866956,-0.390914 z m 13.699673,-3.062785 c 1.784519,-1.899534 3.555414,-3.453699 3.935321,-3.453699 0.379907,0 -0.769323,1.554165 -2.553842,3.453699 -1.784519,1.899535 -3.555414,3.453699 -3.935321,3.453699 -0.379907,0 0.769322,-1.554164 2.553842,-3.453699 z m -87.033208,0.169156 c 0,-0.286873 1.08791,-1.374788 2.41759,-2.41759 2.1911,-1.718382 2.23996,-1.669519 0.52158,0.521585 -1.80472,2.301197 -2.93917,3.033009 -2.93917,1.896005 z m 102.053267,-1.896005 c -1.718382,-2.191104 -1.669519,-2.239967 0.521585,-0.521585 2.301197,1.804722 3.033009,2.939174 1.896005,2.939174 -0.286873,0 -1.374788,-1.087915 -2.41759,-2.417589 z M -39.712736,78.180083 c 0.06628,-1.609344 0.39364,-1.936696 0.834644,-0.834644 0.39907,0.997256 0.34999,2.188782 -0.109067,2.647836 -0.459055,0.459053 -0.785566,-0.356883 -0.725581,-1.813192 z M -88.557327,66.483009 c 1.688475,-1.776819 3.33717,-2.954284 3.663767,-2.616589 0.326595,0.337695 -1.054884,1.791456 -3.069956,3.23058 l -3.663765,2.616588 z m 43.769092,-0.275748 -2.631702,-3.108329 3.108329,2.631701 c 2.921063,2.47315 3.737235,3.584957 2.631702,3.584957 -0.262145,0 -1.660893,-1.398748 -3.108329,-3.108329 z"
         id="path299" /></g></g></svg>
