<svg id="Camada_1" data-name="Camada 1" xmlns="http://www.w3.org/2000/svg" viewBox="0 0 1920 1080"><defs><style>.cls-1{fill:#fefefe;}.cls-2{fill:#020202;}.cls-3{fill:#fdc924;}.cls-4{fill:#9f9066;}.cls-5{fill:#baa45f;}.cls-6{fill:#a09165;}.cls-7{fill:#dfdfdf;}.cls-8{fill:#ddd;}.cls-9{fill:#c58a01;}.cls-10{fill:#484848;}.cls-11{fill:#030980;}.cls-12{fill:#a47301;}.cls-13{fill:#3a3a3a;}.cls-14{fill:#c48a02;}.cls-15{fill:#474747;}.cls-16{fill:#010882;}.cls-17{fill:#04097f;}.cls-18{fill:#050202;}.cls-19{fill:#2a2a2a;}.cls-20{fill:#2c2c2c;}.cls-21{fill:#fec924;}</style></defs><title>Prancheta 1</title><path class="cls-1" d="M968.52,679.93q-137.78,0-275.55.08c-2.94,0-3.37-.81-3.37-3.5q.1-175.82,0-351.61c0-2.94.81-3.38,3.51-3.38q275.55.11,551.1,0c2.94,0,3.38.8,3.38,3.5q-.12,175.82,0,351.61c0,2.94-.8,3.38-3.5,3.37Q1106.31,679.89,968.52,679.93Z"/><path class="cls-2" d="M1093.15,537.81c2.06,2.33,4.15,4.63,6.17,7,1.14,1.34,2.39,1.83,3.83.63,6.86-5.71,15.3-8.6,23-12.84a57.49,57.49,0,0,0,13.74-10.14,11.37,11.37,0,0,0,3.54-10c-1.09-8.82,1.75-16.79,6.61-23.84,9.1-13.18,26-9,32.47-.82,4,5,5.75,10.66,6.91,16.91,5,27.22-13.7,46.23-32.48,51a170,170,0,0,0-36.27,14c-4.76,2.45-5.23,3.36-3.52,8.48,4.7,14.05,4.11,27.78-2.17,41.23a10.76,10.76,0,0,1-1.32,2.65c-5.57,6.24-6.61,13.7-5.87,21.61.23,2.43-.71,4.19-2.12,6.05-5.45,7.21-13.32,8.51-21.56,10.15a54.74,54.74,0,0,1-31.3-2.9c-5.88-2.26-12.32-1.14-18.5-1.15-9.85,0-19.69.54-29.54.72a8.08,8.08,0,0,0-5.77,2c-4.56,4.16-9.67,6.68-16.19,5.73a26.86,26.86,0,0,0-11.41,1.28c-5.31,1.54-10.6,1.37-15.49-1.55a5.89,5.89,0,0,0-5.53-.41c-6.92,2.47-13,.69-17.71-4.89-1.52-1.81-2.91-3.74-4.53-5.46-2.75-2.93-5.84-2.54-7.93.88a24.6,24.6,0,0,0-1.77,3.27c-2.56,6.16-7,9.29-13.84,9.13-3.61-.08-7,1.48-10.33,2.82-3.77,1.5-7.52,2.13-11.6.93-5.91-1.73-12.14-.49-18.13-1.43-13.2-2.07-19.61-11.16-17.36-24.17,1.32-7.65,1.3-8.2-6.44-7.94-9.81.32-19.23-2.67-29-2.52-3,0-4.71.9-5.86,3.76a38.28,38.28,0,0,1-8.62,12.94,10.46,10.46,0,0,1-8.27,3.46c-4.49-.2-8.79.2-12.79,2.82-3.47,2.27-7.67,2.35-11.58,1.6a30.4,30.4,0,0,0-12.17.2c-8.5,1.77-15.59-2.09-17.9-10.43-3.22-11.61-2.43-23.44,7.51-31,12.8-9.8,19.29-22.75,24.53-37.19,7.13-19.64,15.65-38.73,23.9-57.91,1.66-3.85,1.54-7.24-1.29-11-11-14.53-16-31.11-14-49.23,2-17.86,10.33-32.88,22.84-45.77a228,228,0,0,1,34.16-28.35c8.9-6.15,19.38-8.52,29.73-11.09,17.65-4.38,34.38-.36,51,5.2,4.31,1.45,7.74,4.25,11,7.48,9.69,9.72,17.47,21.12,27.48,30.57,4.47,4.21,8.85,7,15.38,6.28,5.92-.67,12-.24,17.95-.3,3.92-1.85,8-1,12.06-.69a92.46,92.46,0,0,1,17.48,3.53c10.53,3.61,17.17,10.52,18.72,21.84.39,2.82,1.11,5.59,1.28,8.44a76.43,76.43,0,0,1-6.64,22.55c4.07-5.17,9.61-5.27,15.36-5a7.33,7.33,0,0,1,6,3.19,33.38,33.38,0,0,1,5.62,12.91,92.44,92.44,0,0,1,1.55,20.41c-.07,4.31.49,5,4.84,5.27,8.86.52,16.58,4.12,24,8.48C1089.48,529.36,1091.2,533.67,1093.15,537.81Z"/><path class="cls-3" d="M1084.92,528.14c-8.41-5.09-17.4-8.48-27.32-8.8-2.22-.07-2.62-.84-2.6-2.83.08-7.71.42-15.44-1.43-23a47.14,47.14,0,0,0-2-6.74c-3.57-8.64-8.39-11.13-17.27-8.51-2.1.63-3.76,2.74-5.65,4.13-1,.76-1.65,2.18-3.78,2.14a76.67,76.67,0,0,0,8.56-25.29c1.84-.53,3.12.66,4.39,1.57,7.8,5.54,16.59,7.3,26,8.1,13.73,1.18,25.26-3.08,35.4-11.85,7.1-6.16,12-13.94,15.54-22.57a5.45,5.45,0,0,0,.47-1.8c.36-8.93,1.21-17.84-.18-26.78-1.12-7.24-4.88-13-9.44-18.35a68.51,68.51,0,0,0-15.28-13.1c-4.86-3.12-10.25-3.73-15.74-3.92s-10.73.22-16.08-.1c-7.9-.47-14.69,2.12-21,6.56a54.58,54.58,0,0,0-21,28.76c-1.95,6.16-.52,12.63-.89,18.95-.11,1.82.46,3.78-1,5.33-9.82-2.44-19.73-4.13-29.9-3.79-1.58-14.51-1.5-28.9,4.76-42.47,11.72-25.39,31.16-41.58,58.7-47.14,23.49-4.74,45.18.38,65,13.7,2.11,1.42,3.47,3.53,5.45,5,2.12.91,3,3.07,4.66,4.49a78.14,78.14,0,0,1,22,46.62c1.66,14.44-2.5,27.53-7.76,40.55a155.3,155.3,0,0,1-11.75,22.47,8.16,8.16,0,0,0-.13,9.07c2.57,4.55,5.5,8.9,7.63,13.7,5.28,11.91-1,21.88-8.7,25.92a21.06,21.06,0,0,1-15.18,1.73,10.25,10.25,0,0,1-4.18-1c-7.8-4-7.73-3.92-13.23,2.75C1090,524.12,1088,526.8,1084.92,528.14Z"/><path class="cls-4" d="M1109.41,519.89c5.47,0,10.91.14,15.81-3.1,7.69-5.08,10.65-13.12,8-21.95-1.74-5.68-5.26-10.41-8.25-15.39-2.34-3.89-2.2-7.16.23-10.91a132.26,132.26,0,0,0,17.41-39c5.06-19.79,1-38.31-9.32-55.67a102.68,102.68,0,0,0-10.77-14.21c-.1-.68.07-1.06.85-.77,10.07,9.25,16.18,20.95,20.79,33.58a90.49,90.49,0,0,1,5.07,20.57c.59,5.15-.37,10.16-1.58,15.12a166,166,0,0,1-18.53,45.71c-1.34,2.24-1.14,3.91,0,6.12,3.91,7.46,8,14.85,8.53,23.63.3,4.94-1.44,8.34-5.43,11-5,3.33-10,6.53-16.32,6.62A13.15,13.15,0,0,1,1109.41,519.89Z"/><path class="cls-5" d="M1084.92,528.14c3.66-4.18,7.79-8,10.57-12.86.81-1.41,1.86-1,2.87-.6a17.38,17.38,0,0,1,6.87,4.23c-8-3.47-16.14,7.45-13.23,15,.48,1.26.77,2.59,1.15,3.89C1090.34,534.64,1089.06,530.18,1084.92,528.14Z"/><path class="cls-6" d="M1123.32,358.94l-.85.77c-1.7-1.09-2.5-3-3.86-4.37C1120.93,355.57,1121.92,357.51,1123.32,358.94Z"/><path class="cls-7" d="M703.88,678.64c-2,.46-3.64.85-5.9,0Z"/><path class="cls-7" d="M716.3,679h-5l0-.35h5.25Z"/><path class="cls-7" d="M724.25,678.57h5V679h-5Z"/><path class="cls-7" d="M737,678.75c1.81-.24,3.48-.62,5.67.19A11.82,11.82,0,0,1,737,678.75Z"/><path class="cls-7" d="M749.71,678.57h5V679h-5Z"/><path class="cls-7" d="M766.6,679h-5v-.37h5Z"/><path class="cls-7" d="M774.38,678.57h5v.37h-5Z"/><path class="cls-7" d="M787.16,678.57h5v.37h-5Z"/><path class="cls-7" d="M799.81,678.57h5l0,.36h-4.94Z"/><path class="cls-7" d="M1240.12,678.57h5v.37h-5Z"/><path class="cls-7" d="M829.63,679h-5.19v-.37h5.19Z"/><ellipse class="cls-7" cx="839.77" cy="678.81" rx="3.7" ry="0.26"/><path class="cls-7" d="M850.05,678.57h5v.37h-5Z"/><path class="cls-7" d="M862.71,678.57h5l0,.36h-4.94Z"/><ellipse class="cls-7" cx="889.95" cy="678.81" rx="3.69" ry="0.26"/><ellipse class="cls-7" cx="902.68" cy="678.81" rx="3.69" ry="0.26"/><path class="cls-7" d="M918,679h-5.19v-.37H918Z"/><path class="cls-7" d="M925.61,678.57h5l0,.36h-4.94Z"/><path class="cls-7" d="M955.33,679.05h-5v-.38h5Z"/><path class="cls-7" d="M963.12,678.57h5v.37h-5Z"/><ellipse class="cls-7" cx="978.31" cy="678.81" rx="3.68" ry="0.26"/><path class="cls-7" d="M993.52,679.05h-5v-.38h5Z"/><ellipse class="cls-7" cx="1015.75" cy="678.81" rx="3.68" ry="0.26"/><path class="cls-7" d="M1026.15,678.63H1032A8.7,8.7,0,0,1,1026.15,678.63Z"/><ellipse class="cls-7" cx="1041.2" cy="678.81" rx="3.7" ry="0.26"/><path class="cls-7" d="M1056.38,679.05h-5v-.38h5Z"/><ellipse class="cls-7" cx="1078.64" cy="678.81" rx="3.7" ry="0.26"/><path class="cls-7" d="M1089.05,678.63h5.88A8.7,8.7,0,0,1,1089.05,678.63Z"/><path class="cls-7" d="M1106.54,679.05h-5v-.38h5Z"/><path class="cls-7" d="M1114.32,678.57h5v.37h-5Z"/><path class="cls-7" d="M1139,678.57h5v.37h-5Z"/><path class="cls-7" d="M1156.75,679.05h-5v-.38h5Z"/><path class="cls-7" d="M1164.38,678.63h5.21V679h-5.21Z"/><ellipse class="cls-7" cx="1179.72" cy="678.81" rx="3.7" ry="0.26"/><path class="cls-7" d="M1201.82,678.63H1207V679h-5.21Z"/><ellipse class="cls-7" cx="1217.16" cy="678.81" rx="3.71" ry="0.26"/><path class="cls-7" d="M1227.39,678.57h5v.37h-5Z"/><path class="cls-8" d="M817.72,678.75a12.39,12.39,0,0,1-6,.12A12.39,12.39,0,0,1,817.72,678.75Z"/><path class="cls-7" d="M1068.48,679h-4.26l0-.33h4.16Z"/><path class="cls-7" d="M1194.3,679h-4.44v-.35h4.44Z"/><path class="cls-7" d="M1132.22,678.88a12.32,12.32,0,0,1-6-.14A12.26,12.26,0,0,1,1132.22,678.88Z"/><path class="cls-7" d="M938.33,678.57h4.25l0,.37h-4.21Z"/><path class="cls-7" d="M1001.16,678.64h4.43V679h-4.43Z"/><path class="cls-7" d="M880.59,678.7a7.43,7.43,0,0,1-5.1,0Z"/><path class="cls-9" d="M882.11,596.91c-4.21,5.34-10,9-14.89,13.55a76.16,76.16,0,0,0-14.77,18.67c-.78,1.43-1.47,2.42-3.36,2.18-8.39-1.07-16.8-1.93-25.17-3.07-5.11-.7-5.12-.87-3.94-5.81,2-8.43,5.56-16.47,6.36-25.22a192.72,192.72,0,0,0,.19-24.27c-.11-3.15-4.12-2.23-6.69-4.14,0,6.5-.12,12.3,0,18.1.36,14-5.06,26.14-12.13,37.77-1.32,2.18-2.76,1.77-4.2.34a28.57,28.57,0,0,0-5.23-4.21,10.92,10.92,0,0,0-1.5-.59c-.49,3.85.58,7.32,1.08,10.83s.68,6.86-1,10.17c-2.81,5.61-7.43,7.89-13.52,6.57a2.2,2.2,0,0,1-1.74-1.65c-.68-1.73-1.63-3.36-2.22-5.12-.92-2.8-2.37-4.28-5.73-2.62,1,3.2,2,6.59,3.2,9.88.86,2.31.24,2.92-2.14,3.31-5.63.92-11.09,1-16.56-.9-4.2-1.49-6-4.49-6.36-8.71-.2-2.46-.44-4.91-.67-7.47-2.31.72-2.56,2.1-2.52,4.09.12,4.84,1.6,9.52,1.8,14.53-2.63,0-4.68-1.29-6.88-2a2.8,2.8,0,0,1-2.1-2.37c-.75-4.27-1.85-8.47-1.66-12.89a17.08,17.08,0,0,1,5-11.68c4.87-5,10.74-9,15.09-14.49,5.56-7.07,8.09-15.6,11.43-23.74,8.15-19.86,16.28-39.73,24.62-59.52,3.09-7.34,3.51-7.51,10.27-3.43,19.28,11.65,39,9.33,58.92,2.33,11.78-4.15,16.86-14.36,21.47-24.95,4.19-9.62,1.55-19-.27-28.46s-5.26-18.61-8.82-27.6c-2.18-5.5-3-11.24-3.67-17-.17-1.39.64-3.94-1.72-3.65-2,.23-4.29,1.17-4.08,4.35.5,7.33,1.11,14.56,4,21.49,3.16,7.68,6.68,15.27,7.42,23.72a192.27,192.27,0,0,1,.35,24.24c-.22,5.51-3.86,9.67-7.46,13.46-7.6,8-16.67,12.46-28.12,12.29-7.71-.11-15.6,1.19-23-1.26-23.29-7.7-37.22-23-39.45-47.2-1.92-20.77,6-37.74,20.23-52.41a231,231,0,0,1,31.64-26.76c13.46-9.64,29-14.15,45.6-13.92,9.82.13,19.4,2.74,28.84,5.47a20.36,20.36,0,0,1,8.71,5.56c8.43,8.5,16.36,17.45,24.18,26.51,4.17,4.84,9.14,8.8,14.13,12.74,2.44,1.93,5.43,1.53,8.23,1.57,12,.17,23.95.19,35.92.29a16.28,16.28,0,0,1,7.07,2c-2.37.3-4.8,1.05-7.12.78-4.74-.53-7.6,2.29-9,5.74-1.85,4.45-3.5,9.4.86,13.89,3.57,3.69,7.15,7.33,11.59,9.95,6.08,3.59,12.52,2.16,18.91,1.1.85-.14,1.69-.37,2.55-.5.21,0,.46.1,1,.24a129.05,129.05,0,0,1-18.1,30.64c-3.85,4.75-9.79,7.4-15.6,9.21-12.29,3.83-23.74,9.46-35.28,15-8.48,4.05-17.38,6.84-27,6.21-4.7-.31-9.39-1-14.06-1.7a55.15,55.15,0,0,0-9.69-.45,2.88,2.88,0,0,0-1.94,2.45c-1.24,10.49-4.58,20.6-5.59,31.16-.45,4.6-.31,9.17-.46,13.76s-1.1,5.37-5.36,3.68c-7.35-2.92-7.77-2.58-7.4,5.14C884.89,587.17,884.53,592.23,882.11,596.91Z"/><path class="cls-10" d="M1088.77,612.51c-9.22,0-18.45.11-27.68.06a34.44,34.44,0,0,0-8.49,1c-7.42,1.85-12.58,11.95-10.68,20.54a68.28,68.28,0,0,0,4.25,12.3c.9,2.09.59,2.93-1.85,2.92-13-.05-25.93,0-38.9,0-1.51,0-2.67-.17-2.76-2.12-.45-9.11-5.84-15.28-12.45-20.72-1-.86-2.07-1.75-3.28-2.77,1.85-1.63,3.61-1.4,5.27-1.37a39,39,0,0,0,11.37-1.71c1.4-.41,2.9-.92,3.68-2.37.52-1,1.47-2,.9-3.06s-1.82-.48-2.77-.48c-7.23,0-14.46,0-21.69.08-17.49.2-32.11-6.83-45-18-8.4-7.24-14.55-16-16.58-27.15-.09-.49-.2-1-.26-1.46-.74-7.15-.73-7,6.39-7.35,5.21-.27,10.36-1.09,15.1-3.6,2-1.05,2.4-2,1-3.91a68.57,68.57,0,0,0-9-9.95c-1-.93-2-1.77.09-2.63,11.08-4.61,20.92-11.52,31.54-17a67.17,67.17,0,0,1,28.89-7.8,32.5,32.5,0,0,0,24.72-12,47.56,47.56,0,0,1,3.19-3.61c2.82-2.52,4.12-2.34,5.34,1.19a38.92,38.92,0,0,1,2,17.91c-.21,1.59-.14,3.25-.49,4.78-.83,3.71.69,6.19,3.61,8.15,1.25.79,2.56,1.52,3.75,2.4s3.36.68,3.29,2.51c-.07,2-2.25,2-3.64,2.71a21.11,21.11,0,0,1-2.36,1.11c-4.66,1.78-7.93,4.57-7.56,10.31,4.22-.39,7.92-2.47,11.87-3.72,6.72-2.13,13.43-3.29,20.53-1.89,4.28.85,6.65,2.91,8,7.12,2.81,8.74.09,16.69-2.81,24.63a52.15,52.15,0,0,1-7.26,13.4c-4,5.41-9.11,7.81-15.92,6.18-1.9-.45-4-.25-5.94-.42-2.31-.21-3.13,1.63-3.62,3.13-.55,1.68,1.46,1.75,2.45,2.12,12.77,4.68,19.54,4,27.91-6,1.51-1.81,2.74-3.85,4.09-5.79l2.06-3c1.58,3.8,1.82,7.53,2.4,11.14s3.33,2.11,5,2.38c1.86.3,1.08-1.81,1.1-2.86.12-4.85.1-9.71.13-14.57.86-2.81,2-1.24,3-.14,3.71,4.43,6.27,9.54,8.61,14.77a78.55,78.55,0,0,1,3.14,8.37C1094,611.53,1093.8,611.85,1088.77,612.51Z"/><path class="cls-11" d="M1014.58,430c0-6.84-.37-13.72.18-20.53.57-7.19,4.22-13.43,8.22-19.25,6.8-9.88,15.56-17.45,27.54-20.21,6.08-1.39,12.41-.57,18.63-.73,3.22-.08,6.46.33,9.7.38,7.75.13,13.65,4.43,19.13,9,8.75,7.33,16.44,15.57,18.12,27.64,1.33,9.56,2,19.41-.67,28.53-3,10.45-9.91,19.12-18.83,25.73-16,11.85-33.5,11.7-51.4,5.66-4.24-1.43-7.88-4.64-11.79-7-.92-4.85-1.69-9.73-3.06-14.49-1.81-6.27-6.32-9.88-11.8-12.66Z"/><path class="cls-12" d="M882.11,596.91A81.38,81.38,0,0,0,883.58,577c-.16-3,.95-3.9,3.74-2.9,1.52.54,3.08,1,4.57,1.57,4.43,1.81,4.6,1.83,4.39-2.77-.59-12.65,2.19-24.82,4.79-37a64.43,64.43,0,0,0,1.21-7.29c.19-2.07,1.08-2.93,3.11-2.67-1,3.61.83,6.55,4.22,6.71,5.6.25,11.18,1,16.7.71.45.67.26,1.13-.22,1.35-6,2.68-7.64,8.05-8.52,13.85-1,6.25-2.12,12.47-2.63,18.79-1,12.16,4,22,11.62,30.9,4.56,5.34,10.26,9.43,15.44,14.09,5,4.47,4.81,5-1.15,7.71-7.46,3.39-15.3,5.94-22.51,9.93a7.37,7.37,0,0,0-4.24,6.37c-.69,6.52-.07,13.23-2.32,19.55-.67,1.87-.88,4.33-4,3.89-2.95-.42-6.63,1.21-7.71-3.59a71.43,71.43,0,0,0-3.24-9.89c-.38-1,.09-2.76-1.86-2.75-1.44-1.67-.59-3.59-.4-5.34,1.5-13.61.13-27.24.8-41.15-2.67.44-3.87,3.32-6.46,2.89l3-8.37c1.48-4.09.54-8.17-.38-12.13-.7-3-3.54-1.77-5.4-1.58s-1,1.91-.63,3C887.74,586.88,886.51,592.22,882.11,596.91Z"/><path class="cls-13" d="M1165.93,488.32c6.47-.06,10.15,3.39,12.54,8.14,12.28,24.37-3.89,45.12-22.82,50.9-14.9,4.55-29.59,9.46-43.33,16.86-2.8,1.5-3.85.82-4.82-1.9-2.44-6.94-1.93-8.9,4.15-13.14s13-6.18,19.2-9.91c5.22-3.16,10.51-6.18,14.58-10.85,5.66-6.5,6.8-14.48,6.92-22.63.09-5.84,1.86-10.65,6.41-14.44C1161,489.44,1163.44,488.08,1165.93,488.32Z"/><path class="cls-13" d="M1088.77,612.51c4.1-.48,3.89-2.6,2.72-5.84-2.89-8-6.12-15.73-11.39-22.47-.48-.62-.95-2.82-2.47-.78.38-11.23-1.31-22.26-3-33.3-.68-4.29-2.32-7.48-6.67-8.94-3.18-1.08-6.25-2.44-9.41-3.58-2.24-.82-3.08-1.94-2.27-4.51,2-6.25,1.82-6.27,8.25-4.43,16.44,4.69,27.41,16,36.1,30,5.35,8.57,9.89,17.59,11.7,27.66,2,11.41,1.36,22.46-4.68,32.78-1.31,2.24-2.16,2.57-4,.55C1099.66,615.28,1095.22,611.74,1088.77,612.51Z"/><path class="cls-14" d="M888.91,599.89l7.51-5.95c-.67,16.93,1.17,33.28-1.45,49.55a34.67,34.67,0,0,0,1.56,15.08c.78,2.26,0,3-1.78,3.92-6.59,3.44-12.72,1.87-18.82-1.27a2.33,2.33,0,0,1-1.32-2.42c.06-5.57-.65-11.19,1.07-16.66.34-1.09,1.31-2.47-1-2.62-1.72-.11-2.85.19-2.85,2.33,0,5.72-.36,11.45-.12,17.16.14,3.28-1,4.21-4,3.67-2.19-.4-4.45-.43-6.52-1.35-6.21-2.76-7.6-6.52-6.56-14.12,2-14.68,9.7-25.75,20.87-34.91C880.22,608.45,885,604.65,888.91,599.89Z"/><path class="cls-10" d="M980.12,639.78c0,3.43-.1,6.41,0,9.38.11,2.54-1,4.09-3.06,5.5a27.19,27.19,0,0,1-13,5.1c-3.14.3-4.46-.51-4.29-4a114.88,114.88,0,0,0-.55-17.85c-3.76,2.91-4.15,7-4.46,10.91-.44,5.54-2.8,8.15-8.52,8.64-5.22.46-8.41-1.87-9.56-7.19a39.17,39.17,0,0,1,.45-18.08c1.23-4.81,9.53-9.38,15.28-8.13a148.58,148.58,0,0,0,25,3.63c3.06.14,5.6,1.94,7.89,3.92,1.22,1.06,2.19,2.46,3.52,3.34,6.5,4.26,6.84,10.64,6.31,17.42a2.73,2.73,0,0,1-1.68,2.59,49.59,49.59,0,0,1-9.19,3c-1.75.44-1.88-.4-1.51-1.84.56-2.16.82-4.4,1.46-6.53C985.45,645.5,984.61,642.28,980.12,639.78Z"/><path class="cls-15" d="M1083.06,634.84c0,4.89-.27,9.51.12,14.08a3.28,3.28,0,0,1-1.81,3.56c-4.55,3-9.63,1.93-14.56,1.91-1.42,0-1.16-1.33-1.26-2.28-.51-4.44-1-8.86-1.66-14.35-2.19,5.92-3.59,11.13-6.86,16.1-3.92-7.56-6.45-15.19-9.28-22.69-.91-2.41,4-9.74,7-10.22,12.55-2,25.11-5.54,37.78-.31,5.13,2.12,10.68,10.85,9.65,16.26-.79,4.14-2,8.2-2.75,12.34-.37,2-1.15,2.33-3.05,2-8.67-1.56-8.85-1.5-8.95-10.44C1087.36,637.56,1085.77,636.12,1083.06,634.84Z"/><path class="cls-13" d="M1034.19,532.51c-3.47-.72-4.9-2.7-4.64-6.35.54-7.26,1.61-14.58-.66-21.76-.52-1.65-1.13-3.27-1.81-5.24l-6.55,4.93c4.32-8.15,9.89-15.08,18.4-19.29,2.2-1.09,3.2-.66,4.28,1.5,2.75,5.53,4.51,11.24,4.38,17.49-.16,8.19,1,16.29,2.08,24.39a42.64,42.64,0,0,1,0,5.14l-11.37-6.66a10.18,10.18,0,0,0-2.61-1.4,4.45,4.45,0,0,0-4,1.59c-1.19,1.19.34,2.19,1,3.13S1034.09,531.43,1034.19,532.51Z"/><path class="cls-16" d="M1084.31,474.17c-.7-2,.28-2.9,1.9-3.81,4.32-2.45,8.53-5.08,12.78-7.64s6.3-2.11,8.81,2.24c4.24,7.3,8.41,14.64,12.7,21.91,1,1.77,1.33,2.77-.87,4-5.82,3.26-11.22,7.27-17.8,9.11-2.51.71-3.75.14-5-2.13-3.47-6.16-7.21-12.17-11-18.17C1084.75,477.94,1083.94,476.24,1084.31,474.17Z"/><path class="cls-17" d="M1114,511.47c-4.36.74-7.83,0-9.9-4.16-.55-1.09-1.22-1.72.31-2.56,6.16-3.36,11.89-7.51,18.49-10.1,1.95-.77,3.33-.77,3,1.88-.35,3.2,1.12,6.42-1.18,9.64C1122,510.12,1119,513,1114,511.47Z"/><path class="cls-18" d="M924.51,431.43c2,0,3.14-.27,4,.06,1.5.56,4.16-1.41,4.44,1.75.26,2.84,1.06,5.51-3.35,6.87-6.84,2.11-13.7,4.82-17,12.19-.92,2-2.92,1-4.38.85-6.8-.87-7.11-1.49-4-7.6a30.59,30.59,0,0,1,13-13.06C919.81,431,922.75,431.74,924.51,431.43Z"/><path d="M997.41,564.66a13.48,13.48,0,0,1-.61,5.15c-.61,1.46-1.26,3.9-2.62,3.43-1.81-.63-4.13-1.71-4.29-4.57-.18-3.06-.4-6.15-2.25-8.88-3.39-5-7.62-8-14-7-1.61.24-3.87.84-4-2.32-.09-2.6-.08-4.67,3.31-4.87,2.84-.16,5.67-.7,8.51-.93,8.48-.67,10.53.52,13.4,8.47C996.17,556.8,997.64,560.56,997.41,564.66Z"/><path class="cls-19" d="M996.43,592.52c-10.6-4.13-19.07-10.68-28.72-15-4.52-2-9.52-3-13.62-6-1.18-.86-3-1.61-2-3.4s2.58-.5,3.68-.15c10.74,3.41,20.49,8.95,30.39,14.19C990.46,584.44,994.55,586.88,996.43,592.52Z"/><path class="cls-20" d="M951.34,575.9c6.18,1,11.06,4.49,15.91,7.91a104,104,0,0,1,18,15.54c.68.77,2.77,1.36,1.49,2.72-1.06,1.12-2.64,2.07-4.5.28a136.7,136.7,0,0,0-16.9-13.93c-4-2.73-8.15-5.19-12.28-7.69a10,10,0,0,1-3.11-2.61,1.91,1.91,0,0,1-.21-2.11C950.13,575.32,950.84,576,951.34,575.9Z"/><path class="cls-21" d="M1103,420.37c1.81,9-2.41,16-7.67,22.5a36,36,0,0,1-20.74,13c-21.72,4.79-46.6-9.67-46.94-36.88a37.32,37.32,0,0,1,28.71-36.69c20.26-4.63,38.66,5.42,45.66,24.12C1103.69,410.89,1103,415.73,1103,420.37Z"/><path class="cls-1" d="M953.58,806.35q-229.35,0-458.71.13c-4.9,0-5.62-1.34-5.62-5.83q.18-292.67,0-585.34c0-4.89,1.34-5.61,5.84-5.61q458.72.18,917.44,0c4.89,0,5.62,1.34,5.61,5.84q-.18,292.67,0,585.33c0,4.89-1.34,5.62-5.84,5.61Q1183,806.27,953.58,806.35Z"/><path class="cls-2" d="M1159.81,569.76c3.43,3.87,6.91,7.7,10.26,11.63,1.9,2.23,4,3.06,6.38,1.06,11.43-9.51,25.47-14.32,38.25-21.38a95.72,95.72,0,0,0,22.89-16.88c4.71-4.84,6.71-10,5.89-16.69-1.81-14.67,2.91-27.95,11-39.68,15.15-21.95,43.33-15,54-1.37,6.57,8.36,9.57,17.75,11.5,28.15,8.39,45.32-22.8,77-54.06,84.88a283.54,283.54,0,0,0-60.38,23.34c-7.93,4.09-8.71,5.6-5.86,14.13,7.81,23.39,6.84,46.24-3.62,68.64-.7,1.49-1.14,3.22-2.2,4.4-9.26,10.39-11,22.81-9.77,36,.38,4-1.18,7-3.53,10.08-9.07,12-22.17,14.16-35.89,16.89-18.19,3.63-35,1.73-52.1-4.82-9.79-3.76-20.52-1.9-30.8-1.92-16.39,0-32.78.91-49.17,1.21-3.72.06-6.79.76-9.61,3.33-7.6,6.93-16.1,11.13-26.95,9.54-6.36-.92-12.73.31-19,2.14-8.84,2.56-17.64,2.28-25.78-2.58-3.08-1.84-5.8-1.91-9.21-.69-11.51,4.12-21.71,1.15-29.49-8.13-2.52-3-4.84-6.23-7.53-9.1-4.58-4.86-9.73-4.22-13.21,1.48a39.51,39.51,0,0,0-2.93,5.43c-4.27,10.27-11.61,15.48-23.05,15.21-6-.15-11.64,2.45-17.2,4.68-6.27,2.51-12.52,3.56-19.31,1.56-9.84-2.89-20.21-.82-30.18-2.38-22-3.45-32.64-18.59-28.9-40.25,2.2-12.72,2.17-13.65-10.72-13.22-16.34.55-32-4.43-48.26-4.18-5,.08-7.84,1.49-9.76,6.25A63.68,63.68,0,0,1,667.22,758c-3.9,3.89-8.18,6-13.77,5.76-7.47-.32-14.64.34-21.3,4.7-5.76,3.78-12.76,3.9-19.28,2.66a50.56,50.56,0,0,0-20.25.34c-14.15,3-26-3.48-29.81-17.37-5.35-19.32-4-39,12.51-51.69,21.3-16.31,32.12-37.88,40.84-61.91,11.86-32.69,26-64.47,39.79-96.41,2.75-6.4,2.55-12.05-2.15-18.26-18.3-24.2-26.68-51.79-23.28-82,3.35-29.74,17.2-54.75,38-76.19,17.29-17.81,36.58-33.15,56.88-47.2,14.8-10.25,32.25-14.18,49.49-18.46,29.37-7.3,57.23-.61,84.83,8.65,7.18,2.41,12.88,7.07,18.26,12.46,16.14,16.17,29.09,35.16,45.76,50.88,7.42,7,14.72,11.68,25.6,10.46,9.85-1.11,19.9-.41,29.87-.5,6.53-3.08,13.39-1.74,20.07-1.15a152.4,152.4,0,0,1,29.11,5.88c17.53,6,28.58,17.52,31.16,36.35.65,4.69,1.85,9.31,2.13,14.06a125.4,125.4,0,0,1-11.08,37.52c6.81-8.59,16-8.77,25.59-8.27a12.19,12.19,0,0,1,10,5.3,56,56,0,0,1,9.35,21.49c2.31,11.21,2.77,22.57,2.58,34-.12,7.18.81,8.36,8,8.78,14.76.86,27.6,6.85,40,14.12C1153.69,555.7,1156.56,562.87,1159.81,569.76Z"/><path class="cls-3" d="M1146.11,553.66c-14-8.48-29-14.13-45.49-14.65-3.7-.12-4.36-1.4-4.32-4.71.14-12.83.69-25.71-2.39-38.34a77.11,77.11,0,0,0-3.36-11.22c-5.94-14.39-14-18.53-28.74-14.16-3.51,1-6.3,4.5-9.4,6.88-1.7,1.3-2.93,3.35-6.56,4a128.11,128.11,0,0,0,14.5-42.56c3.06-.89,5.19,1.1,7.32,2.61,13,9.23,27.62,12.15,43.3,13.49,22.87,2,42.06-5.13,58.94-19.74,11.83-10.24,19.92-23.2,25.88-37.56a9.09,9.09,0,0,0,.77-3c.6-14.86,2-29.68-.29-44.58-1.87-12.05-8.13-21.65-15.73-30.55a114.21,114.21,0,0,0-25.43-21.79c-8.09-5.2-17.06-6.21-26.19-6.53-8.92-.3-17.88.37-26.78-.17-13.14-.79-24.45,3.52-34.92,10.92a91,91,0,0,0-35,47.87c-3.25,10.26-.87,21-1.48,31.56-.18,3,.76,6.29-1.74,8.87-16.35-4.07-32.86-6.88-49.79-6.31-2.63-24.16-2.49-48.11,7.93-70.7,19.5-42.27,51.87-69.22,97.72-78.47,39.1-7.9,75.21.63,108.24,22.8,3.51,2.36,5.78,5.88,9.08,8.37,3.52,1.52,5,5.12,7.74,7.47,21,21.74,33.2,47.44,36.67,77.62,2.77,24-4.16,45.83-12.9,67.49-5.3,13.13-12.24,25.38-19.57,37.41-3.13,5.14-3.2,9.78-.21,15.11,4.27,7.57,9.15,14.81,12.7,22.8,8.79,19.83-1.68,36.43-14.49,43.15a35,35,0,0,1-25.27,2.89c-2.5.2-4.69-.86-7-1.63-13-6.62-12.85-6.53-22,4.58C1154.51,547,1151.27,551.43,1146.11,553.66Z"/><path class="cls-4" d="M1186.87,539.93c9.11,0,18.17.23,26.33-5.16,12.8-8.46,17.73-21.85,13.23-36.55-2.9-9.46-8.77-17.32-13.74-25.62-3.88-6.48-3.65-11.91.38-18.16,13-20.1,23.09-41.68,29-64.84,8.41-33,1.65-63.77-15.52-92.68-5.1-8.56-11.47-16.13-17.93-23.65-.17-1.13.11-1.76,1.41-1.29,16.76,15.41,26.93,34.89,34.61,55.91a150,150,0,0,1,8.43,34.24c1,8.57-.6,16.91-2.62,25.17a276.18,276.18,0,0,1-30.85,76.09c-2.22,3.74-1.89,6.52,0,10.19,6.52,12.43,13.3,24.73,14.2,39.34.5,8.22-2.4,13.89-9,18.31-8.32,5.55-16.68,10.87-27.18,11A21.79,21.79,0,0,1,1186.87,539.93Z"/><path class="cls-5" d="M1146.11,553.66c6.09-6.95,13-13.28,17.6-21.42,1.34-2.35,3.09-1.6,4.76-1,4.27,1.58,8.28,3.64,11.44,7-13.28-5.78-26.86,12.4-22,25,.81,2.1,1.3,4.32,1.93,6.48C1155.14,564.48,1153,557.05,1146.11,553.66Z"/><path class="cls-6" d="M1210,272l-1.41,1.29c-2.83-1.82-4.17-4.95-6.42-7.28C1206.05,266.37,1207.71,269.61,1210,272Z"/><path class="cls-7" d="M511.26,804.78h-9.78A14.43,14.43,0,0,1,511.26,804.78Z"/><path class="cls-7" d="M533,804.2c-3.26.77-6,1.41-9.81,0Z"/><path class="cls-7" d="M545.68,804.08H554v.63h-8.36Z"/><path class="cls-7" d="M566.85,804.38c3-.4,5.8-1,9.44.32C572.42,805.21,569.5,805.35,566.85,804.38Z"/><path class="cls-7" d="M588.06,804.08h8.29v.63H588Z"/><path class="cls-7" d="M616.19,804.87h-8.28l0-.63h8.4Z"/><path class="cls-7" d="M629.14,804.08h8.3l0,.61h-8.31Z"/><path class="cls-7" d="M650.41,804.08h8.25l0,.62h-8.32Z"/><path class="cls-7" d="M671.48,804.09h8.29l.05.59h-8.23Z"/><path class="cls-7" d="M1404.47,804.08h8.3c0,.2,0,.41,0,.61h-8.28Z"/><path class="cls-7" d="M721.11,804.78h-8.64v-.61h8.65Z"/><ellipse class="cls-7" cx="738" cy="804.48" rx="6.16" ry="0.43"/><path class="cls-7" d="M755.12,804.08h8.25l0,.62h-8.32Z"/><path class="cls-7" d="M776.18,804.09h8.3l0,.59H776.3Z"/><ellipse class="cls-7" cx="821.53" cy="804.48" rx="6.14" ry="0.44"/><ellipse class="cls-7" cx="842.73" cy="804.48" rx="6.14" ry="0.44"/><ellipse class="cls-7" cx="863.88" cy="804.47" rx="6.11" ry="0.43"/><path class="cls-7" d="M880.89,804.09h8.3l0,.59H881Z"/><path class="cls-7" d="M930.37,804.88h-8.3l0-.62h8.32Z"/><path class="cls-7" d="M943.34,804.08h8.25l0,.62h-8.33Z"/><ellipse class="cls-7" cx="968.63" cy="804.49" rx="6.13" ry="0.44"/><path class="cls-7" d="M993.94,804.88h-8.3l0-.62h8.32Z"/><ellipse class="cls-7" cx="1030.96" cy="804.49" rx="6.13" ry="0.44"/><path class="cls-7" d="M1048.27,804.18h9.79A14.46,14.46,0,0,1,1048.27,804.18Z"/><path class="cls-7" d="M1069,804.67c2.9-1.36,5.81-.62,8.71-.39C1074.77,805.65,1071.87,804.91,1069,804.67Z"/><path class="cls-7" d="M1098.59,804.88h-8.26v-.63h8.34Z"/><path class="cls-7" d="M1131.29,804.18H1140v.6h-8.71Z"/><path class="cls-7" d="M1153,804.18h8.24C1158.28,805.21,1155.37,805.35,1153,804.18Z"/><path class="cls-7" d="M1182.1,804.88h-8.25l0-.63h8.34Z"/><path class="cls-7" d="M1195.05,804.08h8.27l0,.62h-8.24C1195.08,804.49,1195.07,804.29,1195.05,804.08Z"/><path class="cls-7" d="M1236.18,804.08h8.27l0,.62h-8.24Z"/><path class="cls-7" d="M1265.68,804.88h-8.3v-.62h8.32Z"/><ellipse class="cls-7" cx="1282.72" cy="804.48" rx="6.13" ry="0.43"/><path class="cls-7" d="M1299.57,804.18h8.71v.6h-8.71Z"/><ellipse class="cls-7" cx="1345.05" cy="804.48" rx="6.13" ry="0.43"/><path class="cls-7" d="M1361.88,804.17h8.74v.62h-8.74Z"/><path class="cls-7" d="M1383.28,804.08h8.3c0,.2,0,.41,0,.61h-8.28Z"/><path class="cls-8" d="M701.29,804.38a20.6,20.6,0,0,1-10,.2A20.6,20.6,0,0,1,701.29,804.38Z"/><path class="cls-7" d="M1120.31,804.3c-3.93,1.08-6.3.9-8.73,0Z"/><path class="cls-7" d="M1328.2,804.77h-7.39v-.59h7.39C1328.19,804.38,1328.2,804.57,1328.2,804.77Z"/><path class="cls-7" d="M1224.84,804.59c-3.86.63-6.31.81-10-.22A20.43,20.43,0,0,1,1224.84,804.59Z"/><path class="cls-7" d="M902.08,804.08h7.06l.05.61h-7Z"/><path class="cls-7" d="M1006.67,804.19H1014v.58h-7.37Z"/><path class="cls-7" d="M806,804.31a12.43,12.43,0,0,1-8.49,0Z"/><path class="cls-9" d="M808.48,668.14c-7,8.9-16.64,14.9-24.79,22.55a126.52,126.52,0,0,0-24.58,31.1c-1.3,2.37-2.46,4-5.6,3.62-14-1.78-28-3.22-41.9-5.12-8.5-1.15-8.53-1.43-6.56-9.66,3.36-14,9.27-27.43,10.6-42,1.23-13.47.74-27,.32-40.42-.17-5.55-7.17-3.15-11.15-5.73,0,9.66-.21,19.32,0,29,.59,23.34-8.43,43.53-20.19,62.88-2.21,3.63-4.59,2.94-7,.58-3.25-3.17-6.56-6.17-11.17-8.18-.84,6.59,1,12.37,1.78,18.21s1.12,11.41-1.65,16.94c-4.69,9.32-12.37,13.12-22.51,10.92-1.73-.37-2.33-1.29-2.9-2.74-1.14-2.88-2.49-5.68-3.74-8.51-2.59-5.87-2.59-5.87-9.6-4.69,1.8,5.64,3.39,11.28,5.43,16.76,1.44,3.85.4,4.87-3.56,5.51-9.36,1.54-18.46,1.72-27.56-1.5-7-2.48-10-7.47-10.6-14.49-.32-4.1-.73-8.18-1.11-12.45-3.84,1.2-4.28,3.5-4.19,6.81.24,8.06,2.55,15.86,3.07,24.31-4.62-.43-8.28-2.31-12.1-3.63a4.3,4.3,0,0,1-2.91-3.67c-1.3-7.11-3.1-14.1-2.79-21.47a28.45,28.45,0,0,1,8.37-19.44c8.1-8.33,17.87-14.92,25.12-24.12,9.26-11.77,13.46-26,19-39.52,13.57-33.06,27.1-66.15,41-99.08,5.15-12.22,5.85-12.51,17.11-5.71,32.09,19.38,65,15.52,98.09,3.87,19.6-6.91,28.07-23.9,35.73-41.52,7-16,2.58-31.58-.45-47.39s-8.76-31-14.68-45.94c-3.63-9.17-5-18.71-6.12-28.37-.27-2.32,1.07-6.56-2.86-6.09-3.24.39-7.13,2-6.78,7.25.82,12.2,1.85,24.24,6.59,35.78,5.26,12.77,11.12,25.41,12.35,39.48a327.54,327.54,0,0,1,.59,40.36c-.33,8.95-6.19,15.77-12,21.94-12.72,13.54-27.92,21.22-47.25,20.93-12.83-.2-26,2-38.27-2.1-38.77-12.83-62-38.34-65.68-78.58-3.19-34.58,10-62.83,33.68-87.24,16.11-16.62,34-31.19,52.67-44.56,22.4-16.05,48.34-23.55,75.92-23.17,16.34.22,32.29,4.57,48,9.11,5.67,1.64,10.34,5,14.51,9.25,14,14.15,27.24,29.05,40.25,44.13,6.94,8.06,15.22,14.65,23.52,21.21,4.06,3.22,9,2.56,13.7,2.62,19.93.28,39.86.29,59.8.5,4.1,0,8.06,1,13,3.1-5.16.63-9.2,1.88-13.05,1.45-7.9-.9-12.66,3.81-15,9.54-3.07,7.41-5.82,15.65,1.43,23.13,6,6.14,11.9,12.2,19.29,16.57,10.13,6,20.86,3.63,31.47,1.79,1.81-.32,3.52-1.21,5.91-.39-7.88,18.36-17.66,35.6-30.13,51-6.41,7.92-16.3,12.33-26,15.34-20.45,6.38-39.52,15.75-58.73,24.93-14.12,6.75-28.93,11.39-44.86,10.34-7.83-.51-15.63-1.66-23.4-2.82a92.77,92.77,0,0,0-16.14-.76A4.78,4.78,0,0,0,844,554c-2.08,17.47-7.64,34.29-9.33,51.87-.73,7.65-.5,15.27-.75,22.91-.27,7.87-1.83,8.94-8.93,6.12-12.23-4.86-12.94-4.29-12.32,8.56C813.1,651.93,812.51,660.35,808.48,668.14Z"/><path class="cls-10" d="M1152.52,694.12c-15.36,0-30.72.18-46.08.09a57.14,57.14,0,0,0-14.14,1.71c-12.36,3.09-20.94,19.9-17.78,34.19a113.33,113.33,0,0,0,7.08,20.49c1.5,3.48,1,4.87-3.08,4.86-21.59-.08-43.17,0-64.76,0-2.51,0-4.44-.27-4.6-3.53-.75-15.16-9.72-25.44-20.71-34.5-1-.79-1.85-1.66-2.73-2.54-.71-.71-1.37-1.47-2.27-2.46,2.61-2.31,5.55-1.92,8.3-1.89a64.53,64.53,0,0,0,18.94-2.84c2.32-.67,4.82-1.53,6.12-3.94.86-1.6,2.45-3.34,1.49-5.1s-3-.8-4.6-.8c-12,0-24.08,0-36.12.13-29.11.34-53.45-11.36-74.94-29.89-14-12.06-24.22-26.58-27.6-45.2-.14-.81-.34-1.62-.43-2.43-1.24-11.9-1.22-11.63,10.63-12.24,8.67-.45,17.24-1.81,25.14-6,3.29-1.74,4-3.26,1.61-6.51a113.78,113.78,0,0,0-15-16.56c-1.69-1.55-3.27-2.95.16-4.38,18.44-7.68,34.82-19.17,52.5-28.26,15.11-7.77,31-12.47,48.09-13,16.63-.51,30.37-7.25,41.15-19.94,1.82-2,3.3-4.23,5.31-6,4.71-4.2,6.86-3.89,8.89,2a64.74,64.74,0,0,1,3.36,29.8c-.36,2.66-.25,5.41-.82,8-1.38,6.17,1.14,10.3,6,13.55,2.09,1.33,4.26,2.54,6.25,4s5.59,1.14,5.48,4.19c-.12,3.28-3.76,3.34-6.06,4.51a39.19,39.19,0,0,1-3.94,1.85c-7.77,2.94-13.14,7.65-12.65,17.17,7.09-.65,13.26-4.13,19.83-6.2,11.19-3.54,22.36-5.47,34.18-3.15,7.12,1.41,11.06,4.84,13.32,11.86,4.67,14.54.15,27.79-4.68,41a87.06,87.06,0,0,1-12.08,22.3c-6.74,9-15.18,13-26.51,10.3-3.17-.76-6.59-.42-9.88-.71-3.85-.34-5.22,2.72-6,5.22-.92,2.79,2.44,2.91,4.08,3.51,21.26,7.8,32.53,6.73,46.47-10,2.51-3,4.55-6.42,6.8-9.64l3.43-4.95c2.63,6.32,3,12.54,4,18.55s5.53,3.52,8.28,4c3.08.5,1.79-3,1.83-4.76.2-8.08.16-16.17.21-24.26,1.43-4.67,3.41-2.06,5-.22,6.17,7.36,10.43,15.88,14.33,24.57a131.85,131.85,0,0,1,5.22,13.94C1161.18,692.49,1160.89,693,1152.52,694.12Z"/><path class="cls-11" d="M1029,390.3c0-11.4-.62-22.85.28-34.17,1-12,7-22.37,13.69-32.06,11.31-16.45,25.9-29,45.86-33.63,10.12-2.33,20.65-1,31-1.23,5.37-.13,10.76.56,16.15.65,12.9.21,22.73,7.36,31.85,15,14.56,12.19,27.37,25.92,30.17,46,2.21,15.91,3.3,32.32-1.12,47.49-5.07,17.4-16.5,31.83-31.35,42.83-26.62,19.74-55.77,19.48-85.57,9.42-7.06-2.38-13.11-7.72-19.63-11.71-1.53-8.08-2.81-16.19-5.1-24.13-3-10.43-10.51-16.44-19.62-21.07C1033.41,392.59,1031.22,391.44,1029,390.3Z"/><path class="cls-12" d="M808.48,668.14A134.93,134.93,0,0,0,810.92,635c-.25-4.94,1.58-6.5,6.23-4.84,2.53.9,5.14,1.6,7.62,2.62,7.37,3,7.66,3,7.3-4.62-1-21,3.64-41.31,8-61.65a104.19,104.19,0,0,0,2-12.14c.31-3.44,1.8-4.87,5.18-4.45-1.64,6,1.38,10.92,7,11.18,9.32.42,18.6,1.68,27.8,1.18.74,1.11.43,1.89-.38,2.25-10,4.46-12.71,13.4-14.18,23-1.59,10.41-3.52,20.77-4.38,31.29-1.65,20.24,6.71,36.62,19.35,51.43,7.59,8.89,17.08,15.7,25.7,23.47,8.26,7.43,8,8.33-1.9,12.82-12.44,5.64-25.48,9.9-37.48,16.53-4.31,2.39-6.49,5.28-7.06,10.61-1.15,10.86-.12,22-3.87,32.54-1.11,3.12-1.47,7.21-6.65,6.48-4.91-.69-11,2-12.84-6a116.43,116.43,0,0,0-5.4-16.46c-.62-1.6.16-4.61-3.09-4.58-2.39-2.79-1-6-.66-8.9,2.43-22.65.3-45.34,1.26-68.48-4.38.71-6.37,5.51-10.69,4.79q2.54-7,5.06-13.93c2.46-6.81.9-13.61-.64-20.2-1.16-5-5.88-2.93-9-2.62-3.29.34-1.68,3.17-1,4.92C817.85,651.44,815.8,660.33,808.48,668.14Z"/><path class="cls-13" d="M1281,487.36c10.77-.09,16.9,5.64,20.88,13.55,20.45,40.58-6.48,75.13-38,84.74-24.8,7.57-49.26,15.75-72.12,28.06-4.67,2.52-6.42,1.38-8-3.16-4.07-11.55-3.22-14.81,6.91-21.86,9.91-6.91,21.65-10.29,32-16.51,8.7-5.25,17.51-10.28,24.28-18,9.42-10.83,11.31-24.11,11.52-37.68.14-9.71,3.1-17.73,10.66-24C1272.83,489.24,1276.82,487,1281,487.36Z"/><path class="cls-13" d="M1152.52,694.12c6.82-.8,6.47-4.34,4.52-9.73-4.8-13.27-10.18-26.19-19-37.4-.81-1-1.59-4.7-4.12-1.31.63-18.69-2.18-37-5.06-55.43-1.12-7.13-3.87-12.45-11.11-14.89-5.28-1.79-10.4-4.05-15.65-6-3.73-1.36-5.13-3.23-3.79-7.51,3.26-10.4,3-10.43,13.74-7.37,27.37,7.81,45.62,26.7,60.1,49.88,8.9,14.26,16.46,29.28,19.47,46.05,3.4,19,2.26,37.39-7.79,54.57-2.19,3.73-3.59,4.27-6.66.91C1170.64,698.73,1163.25,692.82,1152.52,694.12Z"/><path class="cls-14" d="M819.8,673.1l12.51-9.91c-1.13,28.19,2,55.42-2.42,82.5a57.56,57.56,0,0,0,2.59,25.09c1.3,3.77.08,5-3,6.53-11,5.74-21.18,3.12-31.33-2.11a3.9,3.9,0,0,1-2.2-4c.11-9.27-1.07-18.63,1.79-27.73.57-1.81,2.18-4.11-1.68-4.36-2.87-.18-4.76.3-4.75,3.87,0,9.53-.59,19.07-.19,28.58.23,5.46-1.63,7-6.63,6.1-3.65-.66-7.42-.72-10.86-2.25-10.33-4.59-12.66-10.85-10.92-23.5,3.35-24.44,16.15-42.87,34.75-58.11C805.34,687.34,813.33,681,819.8,673.1Z"/><path class="cls-10" d="M971.65,739.5c0,5.72-.17,10.68.05,15.62.2,4.23-1.66,6.82-5.08,9.16C960,768.82,953,772,944.94,772.77c-5.23.5-7.43-.85-7.14-6.66a189.86,189.86,0,0,0-.92-29.72c-6.25,4.85-6.9,11.62-7.42,18.16-.73,9.24-4.66,13.57-14.19,14.4-8.68.75-14-3.13-15.9-12a65.15,65.15,0,0,1,.73-30.1c2-8,15.88-15.61,25.44-13.53,13.76,3,27.53,5.41,41.63,6,5.11.23,9.34,3.23,13.14,6.53,2,1.76,3.65,4.1,5.86,5.55,10.83,7.1,11.39,17.72,10.51,29a4.54,4.54,0,0,1-2.8,4.32,82.39,82.39,0,0,1-15.3,5c-2.9.73-3.12-.67-2.51-3.07.93-3.59,1.37-7.32,2.43-10.86C980.52,749,979.11,743.67,971.65,739.5Z"/><path class="cls-15" d="M1143,731.29c0,8.13-.44,15.83.2,23.43.28,3.24-.87,4.53-3,5.93-7.56,4.92-16,3.22-24.23,3.18-2.37,0-1.93-2.21-2.11-3.8-.84-7.38-1.7-14.75-2.76-23.89-3.64,9.86-6,18.54-11.41,26.81-6.53-12.59-10.74-25.3-15.45-37.77-1.51-4,6.58-16.22,11.58-17,20.9-3.37,41.8-9.22,62.9-.51,8.54,3.52,17.77,18.06,16.06,27.07-1.31,6.89-3.27,13.65-4.57,20.54-.63,3.3-1.92,3.87-5.08,3.3-14.44-2.61-14.73-2.51-14.9-17.39C1150.16,735.81,1147.52,733.41,1143,731.29Z"/><path class="cls-13" d="M1061.65,560.92c-5.77-1.18-8.16-4.48-7.71-10.55.89-12.09,2.68-24.27-1.11-36.24-.87-2.74-1.88-5.44-3-8.71l-10.91,8.2c7.2-13.57,16.46-25.11,30.63-32.11,3.67-1.81,5.33-1.1,7.13,2.49,4.59,9.22,7.5,18.72,7.3,29.11-.28,13.65,1.64,27.13,3.45,40.61.33,2.42,0,4.92,0,8.56-6.67-3.91-12.79-7.5-18.93-11.08-1.42-.83-2.8-2-4.34-2.33-2.65-.6-5,1-6.66,2.64-2,2,.57,3.64,1.64,5.21C1060.1,558.08,1061.49,559.13,1061.65,560.92Z"/><path class="cls-16" d="M1145.09,463.82c-1.16-3.27.47-4.83,3.17-6.36,7.19-4.06,14.19-8.44,21.27-12.71s10.48-3.51,14.67,3.72c7,12.16,14,24.39,21.13,36.49,1.74,2.94,2.23,4.6-1.45,6.67-9.69,5.43-18.67,12.1-29.63,15.17-4.17,1.17-6.23.22-8.37-3.55-5.78-10.25-12-20.26-18.23-30.24C1145.83,470.09,1144.48,467.25,1145.09,463.82Z"/><path class="cls-17" d="M1194.54,525.91c-7.24,1.23-13,0-16.47-6.93-.91-1.82-2-2.86.51-4.25,10.26-5.61,19.8-12.51,30.78-16.83,3.25-1.28,5.55-1.28,5.06,3.13-.58,5.33,1.87,10.69-2,16.05C1207.76,523.66,1202.88,528.38,1194.54,525.91Z"/><path class="cls-18" d="M879.07,392.67c3.39,0,5.22-.45,6.67.1,2.49.93,6.92-2.35,7.4,2.91.42,4.73,1.75,9.17-5.58,11.43-11.39,3.51-22.81,8-28.36,20.3-1.52,3.36-4.86,1.71-7.28,1.4-11.33-1.45-11.84-2.47-6.69-12.64,4.84-9.54,12.23-16.6,21.56-21.75C871.24,392,876.14,393.18,879.07,392.67Z"/><path d="M1000.43,614.46c-.07,2.88.16,5.75-1,8.56-1,2.44-2.09,6.5-4.35,5.72-3-1-6.89-2.84-7.16-7.6-.29-5.11-.67-10.25-3.74-14.79-5.64-8.35-12.68-13.36-23.38-11.74-2.69.41-6.46,1.4-6.64-3.86-.16-4.33-.14-7.78,5.49-8.11,4.74-.27,9.44-1.16,14.18-1.54,14.11-1.13,17.53.86,22.31,14.09C998.35,601.36,1000.81,607.63,1000.43,614.46Z"/><path class="cls-19" d="M998.79,660.83C981.15,654,967,643.05,951,635.8c-7.53-3.39-15.86-4.93-22.68-9.92-2-1.44-4.93-2.69-3.37-5.67,1.44-2.75,4.3-.82,6.13-.24,17.88,5.67,34.11,14.9,50.59,23.61C988.86,647.38,995.66,651.45,998.79,660.83Z"/><path class="cls-20" d="M923.73,633.17c10.29,1.63,18.42,7.48,26.49,13.16,10.81,7.62,21.08,16,29.92,25.88,1.13,1.27,4.6,2.26,2.47,4.52-1.76,1.86-4.39,3.44-7.5.47A224.44,224.44,0,0,0,947,654c-6.63-4.56-13.57-8.65-20.45-12.82a16.38,16.38,0,0,1-5.17-4.35,3.15,3.15,0,0,1-.35-3.51C921.71,632.21,922.89,633.25,923.73,633.17Z"/><path class="cls-21" d="M1176.74,374.36c2.45,14.93-4.56,26.46-13.32,37.35a59.91,59.91,0,0,1-34.53,21.58c-36.16,8-77.57-16.09-78.14-61.39-.4-31.83,22.69-55.33,47.8-61.07,33.73-7.72,64.27,9.05,76,40.13a19.19,19.19,0,0,1,1.27,5.42C1176.27,362.37,1176.47,368.37,1176.74,374.36Z"/></svg>